<?xml version="1.0" encoding="utf-8" standalone="no"?>
<!DOCTYPE svg PUBLIC "-//W3C//DTD SVG 1.1//EN"
  "http://www.w3.org/Graphics/SVG/1.1/DTD/svg11.dtd">
<!-- Created with matplotlib (http://matplotlib.org/) -->
<svg height="444pt" version="1.1" viewBox="0 0 614 444" width="614pt" xmlns="http://www.w3.org/2000/svg" xmlns:xlink="http://www.w3.org/1999/xlink">
 <defs>
  <style type="text/css">
*{stroke-linecap:butt;stroke-linejoin:round;}
  </style>
 </defs>
 <g id="figure_1">
  <g id="patch_1">
   <path d="M 0 444.24 
L 614.16 444.24 
L 614.16 0 
L 0 0 
z
" style="fill:#ffffff;"/>
  </g>
  <g id="axes_1">
   <g id="patch_2">
    <path d="M 76.77 395.3736 
L 552.744 395.3736 
L 552.744 53.3088 
L 76.77 53.3088 
z
" style="fill:#e5e5e5;"/>
   </g>
   <g id="matplotlib.axis_1">
    <g id="xtick_1">
     <g id="line2d_1">
      <path clip-path="url(#pac91c1db59)" d="M 77.007868 395.3736 
L 77.007868 53.3088 
" style="fill:none;stroke:#ffffff;stroke-linecap:square;stroke-width:0.8;"/>
     </g>
     <g id="line2d_2">
      <defs>
       <path d="M 0 0 
L 0 3.5 
" id="m430d533018" style="stroke:#555555;stroke-width:0.8;"/>
      </defs>
      <g>
       <use style="fill:#555555;stroke:#555555;stroke-width:0.8;" x="77.007868" xlink:href="#m430d533018" y="395.3736"/>
      </g>
     </g>
     <g id="text_1">
      <!-- 0 -->
      <defs>
       <path d="M 31.78125 66.40625 
Q 24.171875 66.40625 20.328125 58.90625 
Q 16.5 51.421875 16.5 36.375 
Q 16.5 21.390625 20.328125 13.890625 
Q 24.171875 6.390625 31.78125 6.390625 
Q 39.453125 6.390625 43.28125 13.890625 
Q 47.125 21.390625 47.125 36.375 
Q 47.125 51.421875 43.28125 58.90625 
Q 39.453125 66.40625 31.78125 66.40625 
z
M 31.78125 74.21875 
Q 44.046875 74.21875 50.515625 64.515625 
Q 56.984375 54.828125 56.984375 36.375 
Q 56.984375 17.96875 50.515625 8.265625 
Q 44.046875 -1.421875 31.78125 -1.421875 
Q 19.53125 -1.421875 13.0625 8.265625 
Q 6.59375 17.96875 6.59375 36.375 
Q 6.59375 54.828125 13.0625 64.515625 
Q 19.53125 74.21875 31.78125 74.21875 
z
" id="DejaVuSans-30"/>
      </defs>
      <g style="fill:#555555;" transform="translate(73.826618 409.972037)scale(0.1 -0.1)">
       <use xlink:href="#DejaVuSans-30"/>
      </g>
     </g>
    </g>
    <g id="xtick_2">
     <g id="line2d_3">
      <path clip-path="url(#pac91c1db59)" d="M 136.474885 395.3736 
L 136.474885 53.3088 
" style="fill:none;stroke:#ffffff;stroke-linecap:square;stroke-width:0.8;"/>
     </g>
     <g id="line2d_4">
      <g>
       <use style="fill:#555555;stroke:#555555;stroke-width:0.8;" x="136.474885" xlink:href="#m430d533018" y="395.3736"/>
      </g>
     </g>
     <g id="text_2">
      <!-- 250 -->
      <defs>
       <path d="M 19.1875 8.296875 
L 53.609375 8.296875 
L 53.609375 0 
L 7.328125 0 
L 7.328125 8.296875 
Q 12.9375 14.109375 22.625 23.890625 
Q 32.328125 33.6875 34.8125 36.53125 
Q 39.546875 41.84375 41.421875 45.53125 
Q 43.3125 49.21875 43.3125 52.78125 
Q 43.3125 58.59375 39.234375 62.25 
Q 35.15625 65.921875 28.609375 65.921875 
Q 23.96875 65.921875 18.8125 64.3125 
Q 13.671875 62.703125 7.8125 59.421875 
L 7.8125 69.390625 
Q 13.765625 71.78125 18.9375 73 
Q 24.125 74.21875 28.421875 74.21875 
Q 39.75 74.21875 46.484375 68.546875 
Q 53.21875 62.890625 53.21875 53.421875 
Q 53.21875 48.921875 51.53125 44.890625 
Q 49.859375 40.875 45.40625 35.40625 
Q 44.1875 33.984375 37.640625 27.21875 
Q 31.109375 20.453125 19.1875 8.296875 
z
" id="DejaVuSans-32"/>
       <path d="M 10.796875 72.90625 
L 49.515625 72.90625 
L 49.515625 64.59375 
L 19.828125 64.59375 
L 19.828125 46.734375 
Q 21.96875 47.46875 24.109375 47.828125 
Q 26.265625 48.1875 28.421875 48.1875 
Q 40.625 48.1875 47.75 41.5 
Q 54.890625 34.8125 54.890625 23.390625 
Q 54.890625 11.625 47.5625 5.09375 
Q 40.234375 -1.421875 26.90625 -1.421875 
Q 22.3125 -1.421875 17.546875 -0.640625 
Q 12.796875 0.140625 7.71875 1.703125 
L 7.71875 11.625 
Q 12.109375 9.234375 16.796875 8.0625 
Q 21.484375 6.890625 26.703125 6.890625 
Q 35.15625 6.890625 40.078125 11.328125 
Q 45.015625 15.765625 45.015625 23.390625 
Q 45.015625 31 40.078125 35.4375 
Q 35.15625 39.890625 26.703125 39.890625 
Q 22.75 39.890625 18.8125 39.015625 
Q 14.890625 38.140625 10.796875 36.28125 
z
" id="DejaVuSans-35"/>
      </defs>
      <g style="fill:#555555;" transform="translate(126.931135 409.972037)scale(0.1 -0.1)">
       <use xlink:href="#DejaVuSans-32"/>
       <use x="63.623047" xlink:href="#DejaVuSans-35"/>
       <use x="127.246094" xlink:href="#DejaVuSans-30"/>
      </g>
     </g>
    </g>
    <g id="xtick_3">
     <g id="line2d_5">
      <path clip-path="url(#pac91c1db59)" d="M 195.941901 395.3736 
L 195.941901 53.3088 
" style="fill:none;stroke:#ffffff;stroke-linecap:square;stroke-width:0.8;"/>
     </g>
     <g id="line2d_6">
      <g>
       <use style="fill:#555555;stroke:#555555;stroke-width:0.8;" x="195.941901" xlink:href="#m430d533018" y="395.3736"/>
      </g>
     </g>
     <g id="text_3">
      <!-- 500 -->
      <g style="fill:#555555;" transform="translate(186.398151 409.972037)scale(0.1 -0.1)">
       <use xlink:href="#DejaVuSans-35"/>
       <use x="63.623047" xlink:href="#DejaVuSans-30"/>
       <use x="127.246094" xlink:href="#DejaVuSans-30"/>
      </g>
     </g>
    </g>
    <g id="xtick_4">
     <g id="line2d_7">
      <path clip-path="url(#pac91c1db59)" d="M 255.408918 395.3736 
L 255.408918 53.3088 
" style="fill:none;stroke:#ffffff;stroke-linecap:square;stroke-width:0.8;"/>
     </g>
     <g id="line2d_8">
      <g>
       <use style="fill:#555555;stroke:#555555;stroke-width:0.8;" x="255.408918" xlink:href="#m430d533018" y="395.3736"/>
      </g>
     </g>
     <g id="text_4">
      <!-- 750 -->
      <defs>
       <path d="M 8.203125 72.90625 
L 55.078125 72.90625 
L 55.078125 68.703125 
L 28.609375 0 
L 18.3125 0 
L 43.21875 64.59375 
L 8.203125 64.59375 
z
" id="DejaVuSans-37"/>
      </defs>
      <g style="fill:#555555;" transform="translate(245.865168 409.972037)scale(0.1 -0.1)">
       <use xlink:href="#DejaVuSans-37"/>
       <use x="63.623047" xlink:href="#DejaVuSans-35"/>
       <use x="127.246094" xlink:href="#DejaVuSans-30"/>
      </g>
     </g>
    </g>
    <g id="xtick_5">
     <g id="line2d_9">
      <path clip-path="url(#pac91c1db59)" d="M 314.875934 395.3736 
L 314.875934 53.3088 
" style="fill:none;stroke:#ffffff;stroke-linecap:square;stroke-width:0.8;"/>
     </g>
     <g id="line2d_10">
      <g>
       <use style="fill:#555555;stroke:#555555;stroke-width:0.8;" x="314.875934" xlink:href="#m430d533018" y="395.3736"/>
      </g>
     </g>
     <g id="text_5">
      <!-- 1000 -->
      <defs>
       <path d="M 12.40625 8.296875 
L 28.515625 8.296875 
L 28.515625 63.921875 
L 10.984375 60.40625 
L 10.984375 69.390625 
L 28.421875 72.90625 
L 38.28125 72.90625 
L 38.28125 8.296875 
L 54.390625 8.296875 
L 54.390625 0 
L 12.40625 0 
z
" id="DejaVuSans-31"/>
      </defs>
      <g style="fill:#555555;" transform="translate(302.150934 409.972037)scale(0.1 -0.1)">
       <use xlink:href="#DejaVuSans-31"/>
       <use x="63.623047" xlink:href="#DejaVuSans-30"/>
       <use x="127.246094" xlink:href="#DejaVuSans-30"/>
       <use x="190.869141" xlink:href="#DejaVuSans-30"/>
      </g>
     </g>
    </g>
    <g id="xtick_6">
     <g id="line2d_11">
      <path clip-path="url(#pac91c1db59)" d="M 374.342951 395.3736 
L 374.342951 53.3088 
" style="fill:none;stroke:#ffffff;stroke-linecap:square;stroke-width:0.8;"/>
     </g>
     <g id="line2d_12">
      <g>
       <use style="fill:#555555;stroke:#555555;stroke-width:0.8;" x="374.342951" xlink:href="#m430d533018" y="395.3736"/>
      </g>
     </g>
     <g id="text_6">
      <!-- 1250 -->
      <g style="fill:#555555;" transform="translate(361.617951 409.972037)scale(0.1 -0.1)">
       <use xlink:href="#DejaVuSans-31"/>
       <use x="63.623047" xlink:href="#DejaVuSans-32"/>
       <use x="127.246094" xlink:href="#DejaVuSans-35"/>
       <use x="190.869141" xlink:href="#DejaVuSans-30"/>
      </g>
     </g>
    </g>
    <g id="xtick_7">
     <g id="line2d_13">
      <path clip-path="url(#pac91c1db59)" d="M 433.809967 395.3736 
L 433.809967 53.3088 
" style="fill:none;stroke:#ffffff;stroke-linecap:square;stroke-width:0.8;"/>
     </g>
     <g id="line2d_14">
      <g>
       <use style="fill:#555555;stroke:#555555;stroke-width:0.8;" x="433.809967" xlink:href="#m430d533018" y="395.3736"/>
      </g>
     </g>
     <g id="text_7">
      <!-- 1500 -->
      <g style="fill:#555555;" transform="translate(421.084967 409.972037)scale(0.1 -0.1)">
       <use xlink:href="#DejaVuSans-31"/>
       <use x="63.623047" xlink:href="#DejaVuSans-35"/>
       <use x="127.246094" xlink:href="#DejaVuSans-30"/>
       <use x="190.869141" xlink:href="#DejaVuSans-30"/>
      </g>
     </g>
    </g>
    <g id="xtick_8">
     <g id="line2d_15">
      <path clip-path="url(#pac91c1db59)" d="M 493.276984 395.3736 
L 493.276984 53.3088 
" style="fill:none;stroke:#ffffff;stroke-linecap:square;stroke-width:0.8;"/>
     </g>
     <g id="line2d_16">
      <g>
       <use style="fill:#555555;stroke:#555555;stroke-width:0.8;" x="493.276984" xlink:href="#m430d533018" y="395.3736"/>
      </g>
     </g>
     <g id="text_8">
      <!-- 1750 -->
      <g style="fill:#555555;" transform="translate(480.551984 409.972037)scale(0.1 -0.1)">
       <use xlink:href="#DejaVuSans-31"/>
       <use x="63.623047" xlink:href="#DejaVuSans-37"/>
       <use x="127.246094" xlink:href="#DejaVuSans-35"/>
       <use x="190.869141" xlink:href="#DejaVuSans-30"/>
      </g>
     </g>
    </g>
    <g id="xtick_9">
     <g id="line2d_17">
      <path clip-path="url(#pac91c1db59)" d="M 552.744 395.3736 
L 552.744 53.3088 
" style="fill:none;stroke:#ffffff;stroke-linecap:square;stroke-width:0.8;"/>
     </g>
     <g id="line2d_18">
      <g>
       <use style="fill:#555555;stroke:#555555;stroke-width:0.8;" x="552.744" xlink:href="#m430d533018" y="395.3736"/>
      </g>
     </g>
     <g id="text_9">
      <!-- 2000 -->
      <g style="fill:#555555;" transform="translate(540.019 409.972037)scale(0.1 -0.1)">
       <use xlink:href="#DejaVuSans-32"/>
       <use x="63.623047" xlink:href="#DejaVuSans-30"/>
       <use x="127.246094" xlink:href="#DejaVuSans-30"/>
       <use x="190.869141" xlink:href="#DejaVuSans-30"/>
      </g>
     </g>
    </g>
    <g id="text_10">
     <!-- Sample size -->
     <defs>
      <path d="M 53.515625 70.515625 
L 53.515625 60.890625 
Q 47.90625 63.578125 42.921875 64.890625 
Q 37.9375 66.21875 33.296875 66.21875 
Q 25.25 66.21875 20.875 63.09375 
Q 16.5 59.96875 16.5 54.203125 
Q 16.5 49.359375 19.40625 46.890625 
Q 22.3125 44.4375 30.421875 42.921875 
L 36.375 41.703125 
Q 47.40625 39.59375 52.65625 34.296875 
Q 57.90625 29 57.90625 20.125 
Q 57.90625 9.515625 50.796875 4.046875 
Q 43.703125 -1.421875 29.984375 -1.421875 
Q 24.8125 -1.421875 18.96875 -0.25 
Q 13.140625 0.921875 6.890625 3.21875 
L 6.890625 13.375 
Q 12.890625 10.015625 18.65625 8.296875 
Q 24.421875 6.59375 29.984375 6.59375 
Q 38.421875 6.59375 43.015625 9.90625 
Q 47.609375 13.234375 47.609375 19.390625 
Q 47.609375 24.75 44.3125 27.78125 
Q 41.015625 30.8125 33.5 32.328125 
L 27.484375 33.5 
Q 16.453125 35.6875 11.515625 40.375 
Q 6.59375 45.0625 6.59375 53.421875 
Q 6.59375 63.09375 13.40625 68.65625 
Q 20.21875 74.21875 32.171875 74.21875 
Q 37.3125 74.21875 42.625 73.28125 
Q 47.953125 72.359375 53.515625 70.515625 
z
" id="DejaVuSans-53"/>
      <path d="M 34.28125 27.484375 
Q 23.390625 27.484375 19.1875 25 
Q 14.984375 22.515625 14.984375 16.5 
Q 14.984375 11.71875 18.140625 8.90625 
Q 21.296875 6.109375 26.703125 6.109375 
Q 34.1875 6.109375 38.703125 11.40625 
Q 43.21875 16.703125 43.21875 25.484375 
L 43.21875 27.484375 
z
M 52.203125 31.203125 
L 52.203125 0 
L 43.21875 0 
L 43.21875 8.296875 
Q 40.140625 3.328125 35.546875 0.953125 
Q 30.953125 -1.421875 24.3125 -1.421875 
Q 15.921875 -1.421875 10.953125 3.296875 
Q 6 8.015625 6 15.921875 
Q 6 25.140625 12.171875 29.828125 
Q 18.359375 34.515625 30.609375 34.515625 
L 43.21875 34.515625 
L 43.21875 35.40625 
Q 43.21875 41.609375 39.140625 45 
Q 35.0625 48.390625 27.6875 48.390625 
Q 23 48.390625 18.546875 47.265625 
Q 14.109375 46.140625 10.015625 43.890625 
L 10.015625 52.203125 
Q 14.9375 54.109375 19.578125 55.046875 
Q 24.21875 56 28.609375 56 
Q 40.484375 56 46.34375 49.84375 
Q 52.203125 43.703125 52.203125 31.203125 
z
" id="DejaVuSans-61"/>
      <path d="M 52 44.1875 
Q 55.375 50.25 60.0625 53.125 
Q 64.75 56 71.09375 56 
Q 79.640625 56 84.28125 50.015625 
Q 88.921875 44.046875 88.921875 33.015625 
L 88.921875 0 
L 79.890625 0 
L 79.890625 32.71875 
Q 79.890625 40.578125 77.09375 44.375 
Q 74.3125 48.1875 68.609375 48.1875 
Q 61.625 48.1875 57.5625 43.546875 
Q 53.515625 38.921875 53.515625 30.90625 
L 53.515625 0 
L 44.484375 0 
L 44.484375 32.71875 
Q 44.484375 40.625 41.703125 44.40625 
Q 38.921875 48.1875 33.109375 48.1875 
Q 26.21875 48.1875 22.15625 43.53125 
Q 18.109375 38.875 18.109375 30.90625 
L 18.109375 0 
L 9.078125 0 
L 9.078125 54.6875 
L 18.109375 54.6875 
L 18.109375 46.1875 
Q 21.1875 51.21875 25.484375 53.609375 
Q 29.78125 56 35.6875 56 
Q 41.65625 56 45.828125 52.96875 
Q 50 49.953125 52 44.1875 
z
" id="DejaVuSans-6d"/>
      <path d="M 18.109375 8.203125 
L 18.109375 -20.796875 
L 9.078125 -20.796875 
L 9.078125 54.6875 
L 18.109375 54.6875 
L 18.109375 46.390625 
Q 20.953125 51.265625 25.265625 53.625 
Q 29.59375 56 35.59375 56 
Q 45.5625 56 51.78125 48.09375 
Q 58.015625 40.1875 58.015625 27.296875 
Q 58.015625 14.40625 51.78125 6.484375 
Q 45.5625 -1.421875 35.59375 -1.421875 
Q 29.59375 -1.421875 25.265625 0.953125 
Q 20.953125 3.328125 18.109375 8.203125 
z
M 48.6875 27.296875 
Q 48.6875 37.203125 44.609375 42.84375 
Q 40.53125 48.484375 33.40625 48.484375 
Q 26.265625 48.484375 22.1875 42.84375 
Q 18.109375 37.203125 18.109375 27.296875 
Q 18.109375 17.390625 22.1875 11.75 
Q 26.265625 6.109375 33.40625 6.109375 
Q 40.53125 6.109375 44.609375 11.75 
Q 48.6875 17.390625 48.6875 27.296875 
z
" id="DejaVuSans-70"/>
      <path d="M 9.421875 75.984375 
L 18.40625 75.984375 
L 18.40625 0 
L 9.421875 0 
z
" id="DejaVuSans-6c"/>
      <path d="M 56.203125 29.59375 
L 56.203125 25.203125 
L 14.890625 25.203125 
Q 15.484375 15.921875 20.484375 11.0625 
Q 25.484375 6.203125 34.421875 6.203125 
Q 39.59375 6.203125 44.453125 7.46875 
Q 49.3125 8.734375 54.109375 11.28125 
L 54.109375 2.78125 
Q 49.265625 0.734375 44.1875 -0.34375 
Q 39.109375 -1.421875 33.890625 -1.421875 
Q 20.796875 -1.421875 13.15625 6.1875 
Q 5.515625 13.8125 5.515625 26.8125 
Q 5.515625 40.234375 12.765625 48.109375 
Q 20.015625 56 32.328125 56 
Q 43.359375 56 49.78125 48.890625 
Q 56.203125 41.796875 56.203125 29.59375 
z
M 47.21875 32.234375 
Q 47.125 39.59375 43.09375 43.984375 
Q 39.0625 48.390625 32.421875 48.390625 
Q 24.90625 48.390625 20.390625 44.140625 
Q 15.875 39.890625 15.1875 32.171875 
z
" id="DejaVuSans-65"/>
      <path id="DejaVuSans-20"/>
      <path d="M 44.28125 53.078125 
L 44.28125 44.578125 
Q 40.484375 46.53125 36.375 47.5 
Q 32.28125 48.484375 27.875 48.484375 
Q 21.1875 48.484375 17.84375 46.4375 
Q 14.5 44.390625 14.5 40.28125 
Q 14.5 37.15625 16.890625 35.375 
Q 19.28125 33.59375 26.515625 31.984375 
L 29.59375 31.296875 
Q 39.15625 29.25 43.1875 25.515625 
Q 47.21875 21.78125 47.21875 15.09375 
Q 47.21875 7.46875 41.1875 3.015625 
Q 35.15625 -1.421875 24.609375 -1.421875 
Q 20.21875 -1.421875 15.453125 -0.5625 
Q 10.6875 0.296875 5.421875 2 
L 5.421875 11.28125 
Q 10.40625 8.6875 15.234375 7.390625 
Q 20.0625 6.109375 24.8125 6.109375 
Q 31.15625 6.109375 34.5625 8.28125 
Q 37.984375 10.453125 37.984375 14.40625 
Q 37.984375 18.0625 35.515625 20.015625 
Q 33.0625 21.96875 24.703125 23.78125 
L 21.578125 24.515625 
Q 13.234375 26.265625 9.515625 29.90625 
Q 5.8125 33.546875 5.8125 39.890625 
Q 5.8125 47.609375 11.28125 51.796875 
Q 16.75 56 26.8125 56 
Q 31.78125 56 36.171875 55.265625 
Q 40.578125 54.546875 44.28125 53.078125 
z
" id="DejaVuSans-73"/>
      <path d="M 9.421875 54.6875 
L 18.40625 54.6875 
L 18.40625 0 
L 9.421875 0 
z
M 9.421875 75.984375 
L 18.40625 75.984375 
L 18.40625 64.59375 
L 9.421875 64.59375 
z
" id="DejaVuSans-69"/>
      <path d="M 5.515625 54.6875 
L 48.1875 54.6875 
L 48.1875 46.484375 
L 14.40625 7.171875 
L 48.1875 7.171875 
L 48.1875 0 
L 4.296875 0 
L 4.296875 8.203125 
L 38.09375 47.515625 
L 5.515625 47.515625 
z
" id="DejaVuSans-7a"/>
     </defs>
     <g style="fill:#555555;" transform="translate(278.718563 425.16985)scale(0.12 -0.12)">
      <use xlink:href="#DejaVuSans-53"/>
      <use x="63.476562" xlink:href="#DejaVuSans-61"/>
      <use x="124.755859" xlink:href="#DejaVuSans-6d"/>
      <use x="222.167969" xlink:href="#DejaVuSans-70"/>
      <use x="285.644531" xlink:href="#DejaVuSans-6c"/>
      <use x="313.427734" xlink:href="#DejaVuSans-65"/>
      <use x="374.951172" xlink:href="#DejaVuSans-20"/>
      <use x="406.738281" xlink:href="#DejaVuSans-73"/>
      <use x="458.837891" xlink:href="#DejaVuSans-69"/>
      <use x="486.621094" xlink:href="#DejaVuSans-7a"/>
      <use x="539.111328" xlink:href="#DejaVuSans-65"/>
     </g>
    </g>
   </g>
   <g id="matplotlib.axis_2">
    <g id="ytick_1">
     <g id="line2d_19">
      <path clip-path="url(#pac91c1db59)" d="M 76.77 379.8252 
L 552.744 379.8252 
" style="fill:none;stroke:#ffffff;stroke-linecap:square;stroke-width:0.8;"/>
     </g>
     <g id="line2d_20">
      <defs>
       <path d="M 0 0 
L -3.5 0 
" id="m7c38988f50" style="stroke:#555555;stroke-width:0.8;"/>
      </defs>
      <g>
       <use style="fill:#555555;stroke:#555555;stroke-width:0.8;" x="76.77" xlink:href="#m7c38988f50" y="379.8252"/>
      </g>
     </g>
     <g id="text_11">
      <!-- 0.0 -->
      <defs>
       <path d="M 10.6875 12.40625 
L 21 12.40625 
L 21 0 
L 10.6875 0 
z
" id="DejaVuSans-2e"/>
      </defs>
      <g style="fill:#555555;" transform="translate(53.866875 383.624419)scale(0.1 -0.1)">
       <use xlink:href="#DejaVuSans-30"/>
       <use x="63.623047" xlink:href="#DejaVuSans-2e"/>
       <use x="95.410156" xlink:href="#DejaVuSans-30"/>
      </g>
     </g>
    </g>
    <g id="ytick_2">
     <g id="line2d_21">
      <path clip-path="url(#pac91c1db59)" d="M 76.77 317.6316 
L 552.744 317.6316 
" style="fill:none;stroke:#ffffff;stroke-linecap:square;stroke-width:0.8;"/>
     </g>
     <g id="line2d_22">
      <g>
       <use style="fill:#555555;stroke:#555555;stroke-width:0.8;" x="76.77" xlink:href="#m7c38988f50" y="317.6316"/>
      </g>
     </g>
     <g id="text_12">
      <!-- 0.1 -->
      <g style="fill:#555555;" transform="translate(53.866875 321.430819)scale(0.1 -0.1)">
       <use xlink:href="#DejaVuSans-30"/>
       <use x="63.623047" xlink:href="#DejaVuSans-2e"/>
       <use x="95.410156" xlink:href="#DejaVuSans-31"/>
      </g>
     </g>
    </g>
    <g id="ytick_3">
     <g id="line2d_23">
      <path clip-path="url(#pac91c1db59)" d="M 76.77 255.438 
L 552.744 255.438 
" style="fill:none;stroke:#ffffff;stroke-linecap:square;stroke-width:0.8;"/>
     </g>
     <g id="line2d_24">
      <g>
       <use style="fill:#555555;stroke:#555555;stroke-width:0.8;" x="76.77" xlink:href="#m7c38988f50" y="255.438"/>
      </g>
     </g>
     <g id="text_13">
      <!-- 0.2 -->
      <g style="fill:#555555;" transform="translate(53.866875 259.237219)scale(0.1 -0.1)">
       <use xlink:href="#DejaVuSans-30"/>
       <use x="63.623047" xlink:href="#DejaVuSans-2e"/>
       <use x="95.410156" xlink:href="#DejaVuSans-32"/>
      </g>
     </g>
    </g>
    <g id="ytick_4">
     <g id="line2d_25">
      <path clip-path="url(#pac91c1db59)" d="M 76.77 193.2444 
L 552.744 193.2444 
" style="fill:none;stroke:#ffffff;stroke-linecap:square;stroke-width:0.8;"/>
     </g>
     <g id="line2d_26">
      <g>
       <use style="fill:#555555;stroke:#555555;stroke-width:0.8;" x="76.77" xlink:href="#m7c38988f50" y="193.2444"/>
      </g>
     </g>
     <g id="text_14">
      <!-- 0.3 -->
      <defs>
       <path d="M 40.578125 39.3125 
Q 47.65625 37.796875 51.625 33 
Q 55.609375 28.21875 55.609375 21.1875 
Q 55.609375 10.40625 48.1875 4.484375 
Q 40.765625 -1.421875 27.09375 -1.421875 
Q 22.515625 -1.421875 17.65625 -0.515625 
Q 12.796875 0.390625 7.625 2.203125 
L 7.625 11.71875 
Q 11.71875 9.328125 16.59375 8.109375 
Q 21.484375 6.890625 26.8125 6.890625 
Q 36.078125 6.890625 40.9375 10.546875 
Q 45.796875 14.203125 45.796875 21.1875 
Q 45.796875 27.640625 41.28125 31.265625 
Q 36.765625 34.90625 28.71875 34.90625 
L 20.21875 34.90625 
L 20.21875 43.015625 
L 29.109375 43.015625 
Q 36.375 43.015625 40.234375 45.921875 
Q 44.09375 48.828125 44.09375 54.296875 
Q 44.09375 59.90625 40.109375 62.90625 
Q 36.140625 65.921875 28.71875 65.921875 
Q 24.65625 65.921875 20.015625 65.03125 
Q 15.375 64.15625 9.8125 62.3125 
L 9.8125 71.09375 
Q 15.4375 72.65625 20.34375 73.4375 
Q 25.25 74.21875 29.59375 74.21875 
Q 40.828125 74.21875 47.359375 69.109375 
Q 53.90625 64.015625 53.90625 55.328125 
Q 53.90625 49.265625 50.4375 45.09375 
Q 46.96875 40.921875 40.578125 39.3125 
z
" id="DejaVuSans-33"/>
      </defs>
      <g style="fill:#555555;" transform="translate(53.866875 197.043619)scale(0.1 -0.1)">
       <use xlink:href="#DejaVuSans-30"/>
       <use x="63.623047" xlink:href="#DejaVuSans-2e"/>
       <use x="95.410156" xlink:href="#DejaVuSans-33"/>
      </g>
     </g>
    </g>
    <g id="ytick_5">
     <g id="line2d_27">
      <path clip-path="url(#pac91c1db59)" d="M 76.77 131.0508 
L 552.744 131.0508 
" style="fill:none;stroke:#ffffff;stroke-linecap:square;stroke-width:0.8;"/>
     </g>
     <g id="line2d_28">
      <g>
       <use style="fill:#555555;stroke:#555555;stroke-width:0.8;" x="76.77" xlink:href="#m7c38988f50" y="131.0508"/>
      </g>
     </g>
     <g id="text_15">
      <!-- 0.4 -->
      <defs>
       <path d="M 37.796875 64.3125 
L 12.890625 25.390625 
L 37.796875 25.390625 
z
M 35.203125 72.90625 
L 47.609375 72.90625 
L 47.609375 25.390625 
L 58.015625 25.390625 
L 58.015625 17.1875 
L 47.609375 17.1875 
L 47.609375 0 
L 37.796875 0 
L 37.796875 17.1875 
L 4.890625 17.1875 
L 4.890625 26.703125 
z
" id="DejaVuSans-34"/>
      </defs>
      <g style="fill:#555555;" transform="translate(53.866875 134.850019)scale(0.1 -0.1)">
       <use xlink:href="#DejaVuSans-30"/>
       <use x="63.623047" xlink:href="#DejaVuSans-2e"/>
       <use x="95.410156" xlink:href="#DejaVuSans-34"/>
      </g>
     </g>
    </g>
    <g id="ytick_6">
     <g id="line2d_29">
      <path clip-path="url(#pac91c1db59)" d="M 76.77 68.8572 
L 552.744 68.8572 
" style="fill:none;stroke:#ffffff;stroke-linecap:square;stroke-width:0.8;"/>
     </g>
     <g id="line2d_30">
      <g>
       <use style="fill:#555555;stroke:#555555;stroke-width:0.8;" x="76.77" xlink:href="#m7c38988f50" y="68.8572"/>
      </g>
     </g>
     <g id="text_16">
      <!-- 0.5 -->
      <g style="fill:#555555;" transform="translate(53.866875 72.656419)scale(0.1 -0.1)">
       <use xlink:href="#DejaVuSans-30"/>
       <use x="63.623047" xlink:href="#DejaVuSans-2e"/>
       <use x="95.410156" xlink:href="#DejaVuSans-35"/>
      </g>
     </g>
    </g>
    <g id="text_17">
     <!-- Proportion -->
     <defs>
      <path d="M 19.671875 64.796875 
L 19.671875 37.40625 
L 32.078125 37.40625 
Q 38.96875 37.40625 42.71875 40.96875 
Q 46.484375 44.53125 46.484375 51.125 
Q 46.484375 57.671875 42.71875 61.234375 
Q 38.96875 64.796875 32.078125 64.796875 
z
M 9.8125 72.90625 
L 32.078125 72.90625 
Q 44.34375 72.90625 50.609375 67.359375 
Q 56.890625 61.8125 56.890625 51.125 
Q 56.890625 40.328125 50.609375 34.8125 
Q 44.34375 29.296875 32.078125 29.296875 
L 19.671875 29.296875 
L 19.671875 0 
L 9.8125 0 
z
" id="DejaVuSans-50"/>
      <path d="M 41.109375 46.296875 
Q 39.59375 47.171875 37.8125 47.578125 
Q 36.03125 48 33.890625 48 
Q 26.265625 48 22.1875 43.046875 
Q 18.109375 38.09375 18.109375 28.8125 
L 18.109375 0 
L 9.078125 0 
L 9.078125 54.6875 
L 18.109375 54.6875 
L 18.109375 46.1875 
Q 20.953125 51.171875 25.484375 53.578125 
Q 30.03125 56 36.53125 56 
Q 37.453125 56 38.578125 55.875 
Q 39.703125 55.765625 41.0625 55.515625 
z
" id="DejaVuSans-72"/>
      <path d="M 30.609375 48.390625 
Q 23.390625 48.390625 19.1875 42.75 
Q 14.984375 37.109375 14.984375 27.296875 
Q 14.984375 17.484375 19.15625 11.84375 
Q 23.34375 6.203125 30.609375 6.203125 
Q 37.796875 6.203125 41.984375 11.859375 
Q 46.1875 17.53125 46.1875 27.296875 
Q 46.1875 37.015625 41.984375 42.703125 
Q 37.796875 48.390625 30.609375 48.390625 
z
M 30.609375 56 
Q 42.328125 56 49.015625 48.375 
Q 55.71875 40.765625 55.71875 27.296875 
Q 55.71875 13.875 49.015625 6.21875 
Q 42.328125 -1.421875 30.609375 -1.421875 
Q 18.84375 -1.421875 12.171875 6.21875 
Q 5.515625 13.875 5.515625 27.296875 
Q 5.515625 40.765625 12.171875 48.375 
Q 18.84375 56 30.609375 56 
z
" id="DejaVuSans-6f"/>
      <path d="M 18.3125 70.21875 
L 18.3125 54.6875 
L 36.8125 54.6875 
L 36.8125 47.703125 
L 18.3125 47.703125 
L 18.3125 18.015625 
Q 18.3125 11.328125 20.140625 9.421875 
Q 21.96875 7.515625 27.59375 7.515625 
L 36.8125 7.515625 
L 36.8125 0 
L 27.59375 0 
Q 17.1875 0 13.234375 3.875 
Q 9.28125 7.765625 9.28125 18.015625 
L 9.28125 47.703125 
L 2.6875 47.703125 
L 2.6875 54.6875 
L 9.28125 54.6875 
L 9.28125 70.21875 
z
" id="DejaVuSans-74"/>
      <path d="M 54.890625 33.015625 
L 54.890625 0 
L 45.90625 0 
L 45.90625 32.71875 
Q 45.90625 40.484375 42.875 44.328125 
Q 39.84375 48.1875 33.796875 48.1875 
Q 26.515625 48.1875 22.3125 43.546875 
Q 18.109375 38.921875 18.109375 30.90625 
L 18.109375 0 
L 9.078125 0 
L 9.078125 54.6875 
L 18.109375 54.6875 
L 18.109375 46.1875 
Q 21.34375 51.125 25.703125 53.5625 
Q 30.078125 56 35.796875 56 
Q 45.21875 56 50.046875 50.171875 
Q 54.890625 44.34375 54.890625 33.015625 
z
" id="DejaVuSans-6e"/>
     </defs>
     <g style="fill:#555555;" transform="translate(47.37125 255.5337)rotate(-90)scale(0.12 -0.12)">
      <use xlink:href="#DejaVuSans-50"/>
      <use x="60.287109" xlink:href="#DejaVuSans-72"/>
      <use x="101.369141" xlink:href="#DejaVuSans-6f"/>
      <use x="162.550781" xlink:href="#DejaVuSans-70"/>
      <use x="226.027344" xlink:href="#DejaVuSans-6f"/>
      <use x="287.208984" xlink:href="#DejaVuSans-72"/>
      <use x="328.322266" xlink:href="#DejaVuSans-74"/>
      <use x="367.53125" xlink:href="#DejaVuSans-69"/>
      <use x="395.314453" xlink:href="#DejaVuSans-6f"/>
      <use x="456.496094" xlink:href="#DejaVuSans-6e"/>
     </g>
    </g>
   </g>
   <g id="line2d_31">
    <path clip-path="url(#pac91c1db59)" d="M 76.77 226.770638 
L 552.744 226.770638 
" style="fill:none;stroke:#000000;stroke-dasharray:5.55,2.4;stroke-dashoffset:0;stroke-width:1.5;"/>
   </g>
   <g id="line2d_32">
    <path clip-path="url(#pac91c1db59)" d="M 77.007868 379.8252 
L 77.245736 68.8572 
L 77.483604 172.5132 
L 77.721472 68.8572 
L 78.197208 172.5132 
L 78.672945 224.3412 
L 79.148681 255.438 
L 79.386549 210.206291 
L 80.100153 246.5532 
L 80.813757 270.071788 
L 81.527361 286.5348 
L 82.240966 298.703113 
L 82.716702 305.19288 
L 82.95457 284.142738 
L 83.668174 294.040924 
L 83.906042 276.1692 
L 84.14391 279.512942 
L 84.381778 263.2122 
L 85.33325 276.1692 
L 85.571118 262.161632 
L 86.522591 273.641005 
L 87.711931 285.182765 
L 87.949799 273.963753 
L 89.139139 284.142738 
L 89.377007 285.948068 
L 89.614876 276.1692 
L 90.32848 281.624779 
L 90.566348 272.594855 
L 91.042084 276.1692 
L 91.755688 251.4892 
L 92.70716 259.151051 
L 92.945028 251.779553 
L 94.372237 262.161632 
L 94.847973 248.891305 
L 95.799445 255.438 
L 96.037313 249.295422 
L 96.275181 250.887249 
L 96.513049 244.947513 
L 96.750918 246.5532 
L 96.988786 240.804212 
L 98.415994 249.970431 
L 98.653862 244.621722 
L 100.318939 254.181564 
L 100.556807 249.21864 
L 102.221883 257.762994 
L 103.411223 263.2122 
L 103.88696 254.346884 
L 105.0763 259.619082 
L 105.314168 255.438 
L 107.217112 263.2122 
L 109.120057 270.071788 
L 109.595793 271.662417 
L 109.833661 267.966207 
L 110.309397 269.55286 
L 110.547265 265.949594 
L 110.785133 266.745927 
L 111.023001 263.2122 
L 113.163814 270.071788 
L 113.877418 260.222123 
L 114.115286 260.983926 
L 114.353154 257.799782 
L 115.780363 262.264127 
L 116.018231 259.207309 
L 116.969703 262.06217 
L 117.207571 259.096447 
L 117.445439 259.802463 
L 117.683307 256.884363 
L 118.63478 259.678473 
L 118.872648 256.843505 
L 121.251328 263.420066 
L 123.154273 268.195662 
L 123.392141 265.592057 
L 125.057217 269.531131 
L 125.295085 267.023082 
L 126.960162 270.765333 
L 127.435898 265.949594 
L 129.576711 270.566173 
L 129.814579 268.267173 
L 130.766051 270.232953 
L 131.003919 267.985832 
L 131.479655 268.958348 
L 131.717523 266.745927 
L 133.3826 270.071788 
L 133.858336 265.8036 
L 134.096204 266.276719 
L 134.334072 264.175944 
L 134.809808 265.123889 
L 135.285544 261.000029 
L 138.139961 266.526781 
L 138.615697 262.614185 
L 140.042906 265.258042 
L 140.280774 263.357784 
L 141.470114 265.498729 
L 141.707982 263.639354 
L 141.94585 264.06339 
L 142.659454 258.581359 
L 144.324531 261.569763 
L 144.800267 258.047522 
L 147.178948 262.161632 
L 147.654684 258.777254 
L 149.795496 262.325891 
L 150.033364 260.688109 
L 150.271232 261.073666 
L 150.5091 259.45049 
L 151.222705 260.604242 
L 151.460573 259.003238 
L 152.174177 260.146664 
L 152.412045 258.567238 
L 153.363517 260.073548 
L 153.601385 258.518798 
L 154.552858 260.002668 
L 154.790726 258.471834 
L 155.742198 259.933923 
L 155.980066 258.426281 
L 156.455802 259.151051 
L 156.69367 257.6592 
L 157.645142 259.096447 
L 157.88301 257.626631 
L 160.499559 261.445336 
L 160.737427 260.018832 
L 162.87824 262.997443 
L 163.116108 261.60596 
L 163.829712 262.57497 
L 164.06758 261.199805 
L 164.781184 262.161632 
L 165.019052 260.802408 
L 165.256921 261.122361 
L 165.494789 259.773211 
L 166.921997 261.67377 
L 167.397733 259.029231 
L 167.873469 259.66002 
L 168.111337 258.353325 
L 170.25215 261.135124 
L 170.727886 258.587043 
L 171.44149 259.500898 
L 171.679358 258.243726 
L 172.868699 259.748448 
L 173.344435 257.276234 
L 173.582303 257.577338 
L 174.058039 255.133875 
L 174.533775 255.740645 
L 174.771643 254.532268 
L 175.009511 254.835641 
L 175.247379 253.635287 
L 175.485247 253.939359 
L 175.723115 252.746931 
L 177.62606 255.144634 
L 177.863928 253.974621 
L 178.101796 254.270045 
L 178.339664 253.107561 
L 180.242609 255.438 
L 180.480477 254.296833 
L 180.956213 254.870022 
L 181.194081 253.737947 
L 181.669817 254.309771 
L 181.907685 253.186648 
L 182.621289 254.040391 
L 182.859157 252.927944 
L 183.81063 254.05592 
L 184.286366 251.860492 
L 184.762102 252.424213 
L 184.99997 251.337323 
L 186.427178 253.009616 
L 186.665046 251.937927 
L 186.902915 252.214142 
L 187.140783 251.148786 
L 187.616519 251.701045 
L 187.854387 250.643633 
L 190.233067 253.351842 
L 190.470936 252.315309 
L 193.56322 255.691334 
L 194.038957 253.671853 
L 194.276825 253.927224 
L 194.514693 252.925127 
L 194.990429 253.435792 
L 195.228297 252.440718 
L 197.131241 254.454702 
L 197.369109 253.475283 
L 198.320582 254.464323 
L 198.55845 253.49445 
L 200.223526 255.198333 
L 200.699262 253.289277 
L 204.505151 257.059435 
L 204.980888 255.207226 
L 206.170228 256.352612 
L 206.408096 255.438 
L 207.835304 256.792489 
L 208.073172 255.888678 
L 210.213985 257.876965 
L 210.451853 256.987307 
L 211.165457 257.639543 
L 211.403325 256.756592 
L 211.641193 256.973644 
L 211.879061 256.094975 
L 212.830534 256.960221 
L 213.30627 255.221298 
L 213.782006 255.65395 
L 214.257742 253.931581 
L 214.733478 254.365697 
L 214.971346 253.511176 
L 216.636423 255.014914 
L 216.874291 254.170898 
L 218.539367 255.646703 
L 218.777235 254.812939 
L 220.204444 256.056842 
L 220.442312 255.232061 
L 221.393784 256.051753 
L 221.631652 255.233752 
L 222.107388 255.64158 
L 222.345256 254.828259 
L 222.820993 255.235415 
L 223.058861 254.426722 
L 223.772465 255.035452 
L 224.010333 254.232308 
L 224.961805 255.038683 
L 225.437541 253.447805 
L 225.675409 253.649686 
L 225.913277 252.858999 
L 227.102618 253.863478 
L 227.340486 253.079949 
L 227.578354 253.279862 
L 227.816222 252.49972 
L 228.05409 252.699917 
L 228.767694 250.376862 
L 232.335715 253.345861 
L 232.573583 252.589438 
L 232.811451 252.783395 
L 233.049319 252.030132 
L 234.000792 252.803475 
L 234.23866 252.055871 
L 235.665868 253.203499 
L 235.903736 252.463119 
L 236.141604 252.653212 
L 236.379472 251.915859 
L 236.61734 252.1062 
L 236.855208 251.371851 
L 237.093076 251.562434 
L 237.568813 250.101863 
L 238.758153 251.05431 
L 238.996021 250.331194 
L 240.423229 251.460502 
L 240.661097 250.744143 
L 242.564042 252.225705 
L 242.80191 251.517487 
L 244.942723 253.150824 
L 245.180591 252.451302 
L 246.132063 253.166885 
L 246.607799 251.779553 
L 247.797139 252.669996 
L 248.035007 251.9828 
L 251.127292 254.250128 
L 251.36516 253.573887 
L 251.840897 253.916961 
L 252.078765 253.243925 
L 252.792369 253.757092 
L 253.030237 253.087904 
L 254.457445 254.105875 
L 254.695313 253.442483 
L 256.122522 254.448181 
L 256.36039 253.790487 
L 257.073994 254.289306 
L 257.311862 253.635287 
L 259.690543 255.276248 
L 260.166279 253.986009 
L 261.593487 254.957741 
L 262.069223 253.68157 
L 263.496432 254.645725 
L 263.972168 253.383319 
L 265.161508 254.181564 
L 265.399376 253.555722 
L 268.491661 255.592327 
L 268.729529 254.975594 
L 269.681001 255.591375 
L 269.91887 254.978441 
L 271.346078 255.894188 
L 271.583946 255.286123 
L 272.29755 255.740645 
L 272.535418 255.135722 
L 273.011154 255.438 
L 273.486891 254.234738 
L 273.962627 254.537731 
L 274.676231 252.746931 
L 276.817043 254.106865 
L 277.054912 253.517533 
L 277.29278 253.667364 
L 277.530648 253.079949 
L 279.67146 254.417238 
L 279.909328 253.835823 
L 281.098669 254.569172 
L 281.812273 252.840587 
L 282.763745 253.427121 
L 283.001613 252.855567 
L 284.428822 253.72821 
L 284.66669 253.160889 
L 284.904558 253.305648 
L 285.142426 252.740104 
L 286.569634 253.604629 
L 286.807502 253.043229 
L 287.283238 253.329742 
L 287.521106 252.770554 
L 288.472579 253.341587 
L 288.710447 252.785523 
L 289.186183 253.070047 
L 289.424051 252.516153 
L 292.754204 254.479068 
L 293.22994 253.387662 
L 293.467808 253.526451 
L 294.181412 251.899633 
L 297.035829 253.557416 
L 297.273697 253.022715 
L 297.749433 253.295702 
L 297.987301 252.763006 
L 299.41451 253.577508 
L 299.652378 253.048491 
L 300.841718 253.721404 
L 301.079586 253.195601 
L 302.031058 253.730467 
L 302.268927 253.207428 
L 304.885475 254.659769 
L 305.123343 254.1423 
L 306.78842 255.052104 
L 307.502024 253.514487 
L 309.1671 254.419476 
L 310.118573 252.394888 
L 310.832177 252.783395 
L 311.070045 252.280964 
L 312.021517 252.796816 
L 312.735121 251.300119 
L 313.210858 251.558721 
L 313.448726 251.062571 
L 315.35167 252.089591 
L 315.589538 251.597359 
L 316.065274 251.852285 
L 316.303142 251.361756 
L 318.681823 252.624917 
L 318.919691 252.138929 
L 319.633295 252.514109 
L 320.109031 251.5471 
L 320.822636 251.922182 
L 321.060504 251.441138 
L 321.298372 251.566025 
L 321.53624 251.086261 
L 322.011976 251.335997 
L 322.249844 250.857851 
L 322.487712 250.982699 
L 322.72558 250.505819 
L 323.439184 250.879935 
L 323.677052 250.404992 
L 323.914921 250.529554 
L 324.390657 249.583079 
L 325.579997 250.205651 
L 325.817865 249.735435 
L 327.245073 250.476687 
L 327.482942 250.009337 
L 329.623754 251.108436 
L 330.09949 250.182203 
L 330.575226 250.425207 
L 330.813094 249.964031 
L 331.050963 250.085511 
L 331.288831 249.625514 
L 332.478171 250.231094 
L 332.953907 249.31681 
L 333.429643 249.558716 
L 333.667511 249.103467 
L 333.905379 249.224393 
L 334.143247 248.770294 
L 335.808324 249.612704 
L 336.046192 249.161582 
L 336.28406 249.281347 
L 336.759796 248.382184 
L 336.997664 248.502333 
L 337.235532 248.054285 
L 338.187004 248.533888 
L 338.662741 247.642617 
L 338.900609 247.762565 
L 339.138477 247.318437 
L 339.614213 247.558268 
L 339.852081 247.115529 
L 340.089949 247.235411 
L 340.327817 246.793763 
L 340.565685 246.913719 
L 340.803553 246.473157 
L 343.895838 248.016858 
L 344.133706 247.580801 
L 344.84731 247.932827 
L 345.085178 247.498391 
L 346.512387 248.198533 
L 346.750255 247.766543 
L 347.939595 248.345747 
L 348.177463 247.915899 
L 352.459088 249.964534 
L 352.696957 249.540331 
L 353.172693 249.764573 
L 353.410561 249.341637 
L 354.599901 249.900214 
L 354.837769 249.479332 
L 355.551373 249.812982 
L 356.027109 248.974951 
L 356.264978 249.086313 
L 356.502846 248.668629 
L 356.740714 248.780062 
L 357.21645 247.947337 
L 357.454318 248.059098 
L 357.692186 247.644052 
L 357.930054 247.75588 
L 358.40579 246.928403 
L 358.881526 247.152512 
L 359.119394 246.740327 
L 361.260207 247.741802 
L 361.498075 247.332568 
L 362.687415 247.883702 
L 362.925283 247.476392 
L 363.876756 247.914996 
L 364.59036 246.700056 
L 366.017568 247.356924 
L 366.255436 246.954732 
L 367.206909 247.390016 
L 367.444777 246.989442 
L 367.920513 247.206494 
L 368.158381 246.807051 
L 368.634117 247.02387 
L 368.871985 246.625552 
L 370.061325 247.165696 
L 370.299193 246.7692 
L 371.250666 247.199106 
L 371.96427 246.016246 
L 373.391478 246.660074 
L 374.105082 245.487024 
L 374.580819 245.701622 
L 374.818687 245.312306 
L 377.673103 246.588318 
L 377.910972 246.2023 
L 378.14884 246.307764 
L 378.386708 245.922575 
L 379.33818 246.343653 
L 379.576048 245.959949 
L 380.289652 246.27468 
L 380.52752 245.892232 
L 381.478993 246.310446 
L 381.716861 245.929462 
L 382.192597 246.138022 
L 382.430465 245.758062 
L 382.668333 245.862314 
L 382.906201 245.483158 
L 383.144069 245.587461 
L 383.381937 245.209107 
L 384.095541 245.521683 
L 384.333409 245.14455 
L 385.284882 245.559911 
L 385.760618 244.809071 
L 386.71209 245.223548 
L 386.949958 244.849826 
L 387.187826 244.953255 
L 387.425694 244.580312 
L 387.663562 244.683789 
L 388.139298 243.940024 
L 388.615034 244.147324 
L 388.852903 243.7767 
L 389.566507 244.087077 
L 390.042243 243.348735 
L 390.280111 243.452283 
L 390.517979 243.084154 
L 391.469451 243.497581 
L 391.707319 243.130807 
L 392.183055 243.336983 
L 392.658792 242.605887 
L 395.988945 244.037385 
L 396.226813 243.675398 
L 396.464681 243.7767 
L 396.702549 243.415445 
L 396.940417 243.51679 
L 397.178285 243.156265 
L 397.654021 243.358887 
L 397.891889 242.99928 
L 399.081229 243.504173 
L 399.556966 242.788454 
L 399.794834 242.889365 
L 400.032702 242.532485 
L 400.27057 242.633435 
L 400.746306 241.921623 
L 401.697778 242.32544 
L 402.173514 241.6172 
L 402.64925 241.818964 
L 402.887118 241.465988 
L 403.600723 241.768082 
L 403.838591 241.41617 
L 404.076459 241.516758 
L 404.552195 240.814831 
L 404.790063 240.915637 
L 405.027931 240.565617 
L 405.503667 240.767151 
L 405.741535 240.417998 
L 406.930876 240.920186 
L 407.406612 240.225177 
L 407.64448 240.325536 
L 408.120216 239.632878 
L 408.595952 239.833871 
L 409.071688 239.1439 
L 409.785292 239.44536 
L 410.02316 239.101637 
L 411.450369 239.701737 
L 411.688237 239.359541 
L 411.926105 239.459233 
L 412.163973 239.117694 
L 415.256258 240.403145 
L 415.494126 240.064301 
L 416.20773 240.358122 
L 416.445598 240.020259 
L 416.683466 240.118093 
L 417.39707 239.107837 
L 419.062147 239.792355 
L 419.300015 239.4577 
L 419.775751 239.652384 
L 420.013619 239.318522 
L 420.727223 239.61003 
L 420.965091 239.27712 
L 421.916564 239.664571 
L 422.630168 238.670537 
L 422.868036 238.767551 
L 423.105904 238.437277 
L 423.58164 238.631225 
L 423.819508 238.301724 
L 424.057376 238.398658 
L 424.295244 238.069767 
L 424.533112 238.166727 
L 424.770981 237.838444 
L 425.960321 238.32205 
L 426.198189 237.995003 
L 427.863265 238.667639 
L 428.101133 238.342129 
L 428.339001 238.437855 
L 428.814738 237.788465 
L 430.479814 238.457098 
L 430.717682 238.134135 
L 431.193418 238.324325 
L 431.431286 238.002101 
L 433.334231 238.758996 
L 433.572099 238.438416 
L 434.761439 238.90814 
L 434.999307 238.588738 
L 435.237175 238.682458 
L 435.475043 238.36363 
L 436.188648 238.644493 
L 436.426516 238.326533 
L 437.377988 238.699881 
L 437.615856 238.382932 
L 438.091592 238.569163 
L 438.567328 237.937105 
L 439.043064 238.123432 
L 439.280933 237.808318 
L 439.756669 237.994448 
L 439.994537 237.680037 
L 440.470273 237.865969 
L 441.421745 236.613584 
L 441.659613 236.706942 
L 441.897481 236.395008 
L 443.086822 236.860691 
L 443.32469 236.549872 
L 443.800426 236.735582 
L 444.276162 236.115717 
L 444.751898 236.301508 
L 445.465502 235.375548 
L 446.416975 235.747362 
L 446.654843 235.440058 
L 447.130579 235.625524 
L 447.368447 235.318889 
L 448.082051 235.596608 
L 448.557787 234.985338 
L 449.033523 235.170437 
L 449.747127 234.257271 
L 450.460732 234.53525 
L 450.936468 233.929215 
L 451.412204 234.11448 
L 451.88794 233.510516 
L 452.601544 233.788329 
L 452.839412 233.487318 
L 453.07728 233.579819 
L 453.315148 233.27932 
L 453.553016 233.371836 
L 453.790885 233.071847 
L 454.266621 233.256792 
L 454.504489 232.957442 
L 455.693829 233.41842 
L 455.931697 233.120096 
L 456.169565 233.212074 
L 456.645301 232.616804 
L 456.883169 232.708925 
L 457.121037 232.411977 
L 457.358906 232.50411 
L 457.596774 232.207661 
L 458.548246 232.575555 
L 458.786114 232.279985 
L 459.26185 232.463499 
L 459.737586 231.873965 
L 461.878399 232.696424 
L 462.116267 232.403333 
L 462.829871 232.675832 
L 463.067739 232.383476 
L 463.543475 232.564831 
L 463.781343 232.273082 
L 464.732816 232.634951 
L 464.970684 232.344053 
L 465.44642 232.524568 
L 465.684288 232.234272 
L 466.160024 232.41459 
L 466.397892 232.124892 
L 468.538705 232.931998 
L 469.490177 231.781076 
L 470.441649 232.138887 
L 470.917385 231.566467 
L 474.247538 232.808611 
L 474.961142 231.957501 
L 475.19901 232.04578 
L 475.436879 231.762871 
L 476.388351 232.1154 
L 477.101955 231.270077 
L 477.815559 231.53441 
L 478.053427 231.253648 
L 480.907844 232.303006 
L 481.145712 232.023939 
L 481.621448 232.197618 
L 481.859316 231.919105 
L 483.048657 232.352085 
L 484.000129 231.243527 
L 484.951601 231.589871 
L 485.189469 231.313983 
L 487.56815 232.17392 
L 487.806018 231.89945 
L 490.660435 232.919628 
L 490.898303 232.646778 
L 493.514852 233.570844 
L 493.990588 233.028447 
L 495.417796 233.528891 
L 495.893532 232.989005 
L 496.369268 233.155486 
L 496.845004 232.617245 
L 497.082873 232.700555 
L 497.320741 232.431996 
L 498.272213 232.764712 
L 498.747949 232.22934 
L 500.413025 232.809447 
L 500.650894 232.542937 
L 500.888762 232.625541 
L 501.364498 232.093624 
L 502.791706 232.588537 
L 503.029574 232.323638 
L 504.456783 232.815856 
L 504.694651 232.551861 
L 507.073331 233.365976 
L 507.311199 233.103282 
L 508.024804 233.346065 
L 508.262672 233.083961 
L 508.50054 233.16481 
L 508.738408 232.903094 
L 508.976276 232.983954 
L 509.214144 232.722626 
L 509.68988 232.884277 
L 509.927748 232.623434 
L 511.117088 233.026506 
L 511.354957 232.766441 
L 511.830693 232.927249 
L 512.068561 232.667666 
L 513.257901 233.06864 
L 513.733637 232.551297 
L 513.971505 232.631424 
L 514.209373 232.373272 
L 514.685109 232.533459 
L 515.160846 232.018381 
L 515.398714 232.098536 
L 516.112318 231.328299 
L 516.350186 231.408655 
L 516.588054 231.15256 
L 517.301658 231.39339 
L 517.539526 231.137856 
L 518.490999 231.458131 
L 518.728867 231.20325 
L 520.156075 231.681646 
L 520.631811 231.17383 
L 521.107547 231.332986 
L 521.583283 230.826629 
L 523.24836 231.382297 
L 523.486228 231.130171 
L 524.4377 231.446207 
L 524.675568 231.194717 
L 526.340645 231.7452 
L 526.578513 231.494615 
L 527.054249 231.65133 
L 527.292117 231.401192 
L 527.529985 231.479516 
L 527.767853 231.229732 
L 528.243589 231.386313 
L 528.481457 231.136973 
L 529.670798 231.527435 
L 529.908666 231.278806 
L 531.335874 231.7452 
L 531.573742 231.497367 
L 531.81161 231.574904 
L 532.049478 231.327419 
L 532.525214 231.482428 
L 532.763082 231.235378 
L 533.000951 231.31285 
L 533.238819 231.066146 
L 533.476687 231.143625 
L 533.714555 230.897267 
L 535.141763 231.360976 
L 535.379631 231.115399 
L 535.617499 231.192491 
L 535.855367 230.947256 
L 537.282576 231.408655 
L 537.520444 231.164194 
L 538.947652 231.623261 
L 539.18552 231.37957 
L 539.899124 231.6083 
L 540.136993 231.365118 
L 541.326333 231.7452 
L 541.564201 231.502694 
L 541.802069 231.578563 
L 542.039937 231.33639 
L 542.515673 231.488064 
L 542.753541 231.246309 
L 543.467145 231.473494 
L 543.942882 230.991229 
L 545.607958 231.519812 
L 545.845826 231.279634 
L 546.321562 231.430136 
L 546.797298 230.950844 
L 548.224507 231.401523 
L 548.462375 231.162737 
L 549.413847 231.462007 
L 549.651715 231.223792 
L 549.889583 231.298503 
L 550.127451 231.060609 
L 551.316792 231.433453 
L 551.55466 231.196206 
L 551.792528 231.270632 
L 552.030396 231.033705 
L 552.268264 231.108137 
L 552.268264 231.108137 
" style="fill:none;stroke:#e24a33;stroke-linecap:square;stroke-width:1.5;"/>
   </g>
   <g id="line2d_33">
    <path clip-path="url(#pac91c1db59)" d="M 76.77 226.770638 
L 552.744 226.770638 
" style="fill:none;stroke:#000000;stroke-dasharray:5.55,2.4;stroke-dashoffset:0;stroke-width:1.5;"/>
   </g>
   <g id="line2d_34">
    <path clip-path="url(#pac91c1db59)" d="M 77.007868 379.8252 
L 77.721472 379.8252 
L 77.95934 255.438 
L 78.435076 290.9772 
L 78.672945 302.0832 
L 79.148681 193.2444 
L 79.386549 210.206291 
L 79.624417 172.5132 
L 79.862285 188.460277 
L 80.100153 157.7052 
L 80.813757 196.902847 
L 81.051625 172.5132 
L 81.765229 202.1292 
L 82.003097 210.206291 
L 82.240966 190.54033 
L 82.716702 205.68312 
L 82.95457 188.460277 
L 83.906042 213.9756 
L 84.14391 199.263135 
L 85.095382 219.8988 
L 85.808987 232.524568 
L 86.046855 220.354431 
L 86.284723 224.3412 
L 86.522591 212.964322 
L 87.711931 231.101374 
L 87.949799 221.03303 
L 88.425535 227.514343 
L 88.663403 218.12184 
L 89.139139 224.3412 
L 89.377007 215.540219 
L 90.566348 229.702717 
L 91.993556 243.7767 
L 92.945028 251.779553 
L 93.182897 244.621722 
L 94.610105 255.438 
L 94.847973 248.891305 
L 96.275181 258.471834 
L 97.226654 264.116177 
L 97.70239 252.611018 
L 97.940258 254.040391 
L 98.178126 248.5276 
L 98.653862 251.381896 
L 98.89173 246.075523 
L 99.129598 247.498391 
L 99.367466 242.344611 
L 99.843202 245.179262 
L 100.08107 240.206914 
L 100.318939 241.6172 
L 100.794675 232.038428 
L 101.984015 239.009502 
L 102.697619 225.767659 
L 103.649091 231.221023 
L 103.88696 227.068989 
L 104.124828 228.397304 
L 104.362696 224.3412 
L 104.838432 226.976522 
L 105.0763 223.034612 
L 105.789904 226.890118 
L 106.26564 219.325587 
L 107.217112 224.3412 
L 107.454981 220.725293 
L 107.930717 223.154299 
L 108.406453 216.157832 
L 108.644321 217.37923 
L 109.120057 210.622024 
L 109.357925 211.857083 
L 109.833661 205.325171 
L 111.023001 211.3842 
L 111.498738 205.17194 
L 113.63955 215.313097 
L 113.877418 212.380892 
L 114.591022 215.540219 
L 114.828891 212.6799 
L 115.066759 213.71807 
L 115.542495 208.125077 
L 116.731835 213.2352 
L 117.445439 205.246674 
L 118.159043 208.256648 
L 118.396912 205.68312 
L 119.110516 208.618099 
L 119.348384 206.10006 
L 119.586252 207.0652 
L 119.82412 204.583565 
L 120.775592 208.372573 
L 121.01346 205.950619 
L 121.489196 207.800349 
L 121.727064 205.419867 
L 121.964933 206.337789 
L 122.202801 203.989891 
L 124.581481 212.737916 
L 124.819349 213.565081 
L 125.057217 211.320372 
L 125.295085 212.146376 
L 125.532954 209.930488 
L 126.246558 212.380892 
L 126.484426 210.206291 
L 128.149502 215.7032 
L 128.38737 213.593458 
L 129.100975 215.860255 
L 129.338843 213.787987 
L 129.814579 215.27711 
L 130.052447 213.2352 
L 130.528183 214.709448 
L 130.766051 212.697024 
L 132.431127 217.696585 
L 132.668996 215.739957 
L 133.620468 218.486154 
L 133.858336 216.567 
L 136.474885 223.721742 
L 136.950621 224.955761 
L 137.188489 223.116917 
L 137.664225 224.3412 
L 137.902093 222.526212 
L 138.615697 224.3412 
L 138.853565 222.554028 
L 139.329301 223.750006 
L 139.567169 221.985382 
L 139.805037 222.581004 
L 140.042906 220.834042 
L 140.518642 222.020543 
L 140.75651 220.295148 
L 140.994378 220.886 
L 141.232246 219.177525 
L 141.707982 220.354431 
L 141.94585 218.666601 
L 144.086663 223.791787 
L 144.800267 218.904697 
L 145.751739 221.12429 
L 145.989607 219.532416 
L 147.178948 222.240065 
L 147.416816 220.676594 
L 149.081892 224.3412 
L 149.31976 222.811849 
L 151.222705 226.82497 
L 151.698441 223.8476 
L 152.412045 225.319087 
L 152.887781 222.39765 
L 153.601385 223.859825 
L 153.839253 222.421644 
L 154.31499 223.38731 
L 154.552858 221.963769 
L 154.790726 222.445054 
L 155.028594 221.03303 
L 155.266462 221.514218 
L 155.50433 220.113538 
L 158.596615 226.149153 
L 158.834483 224.791878 
L 160.499559 227.874927 
L 160.737427 226.543523 
L 161.451031 227.835222 
L 161.6889 226.518847 
L 162.402504 227.7964 
L 162.640372 226.494718 
L 162.87824 226.918283 
L 163.353976 224.3412 
L 164.305448 226.031243 
L 164.543316 224.762566 
L 165.256921 226.013071 
L 165.494789 224.758047 
L 166.921997 227.212936 
L 167.159865 225.977874 
L 168.824942 228.760642 
L 169.06281 227.547056 
L 169.300678 227.938516 
L 169.538546 226.733262 
L 169.776414 227.124801 
L 170.25215 224.736834 
L 170.727886 225.522091 
L 170.965754 224.3412 
L 174.058039 229.283234 
L 174.295907 228.133493 
L 175.009511 229.235369 
L 175.247379 228.096852 
L 176.674588 230.2644 
L 176.912456 229.142369 
L 177.150324 229.499437 
L 177.62606 227.27486 
L 177.863928 227.633802 
L 178.101796 226.531115 
L 178.8154 227.603102 
L 179.053268 226.510744 
L 179.529004 227.220533 
L 180.004741 225.057716 
L 181.431949 227.168182 
L 181.669817 226.104057 
L 182.621289 227.48582 
L 182.859157 226.432913 
L 184.762102 229.135861 
L 184.99997 228.100154 
L 185.237838 228.432884 
L 185.713574 226.378108 
L 185.951442 226.712416 
L 186.18931 225.693235 
L 186.427178 226.027577 
L 186.902915 224.005381 
L 187.854387 225.340027 
L 188.092255 224.3412 
L 188.805859 225.331544 
L 189.043727 224.3412 
L 189.281595 224.669919 
L 189.519463 223.685149 
L 190.233067 224.667162 
L 190.946672 221.7498 
L 193.087484 224.659163 
L 193.325352 223.706571 
L 193.56322 224.024532 
L 193.801088 223.077102 
L 194.038957 223.39505 
L 194.276825 222.45273 
L 194.752561 223.087297 
L 194.990429 222.151285 
L 195.466165 222.783244 
L 195.941901 220.92738 
L 196.893373 222.185976 
L 197.606978 219.444066 
L 198.796318 221.007235 
L 199.034186 220.106227 
L 200.461394 221.949138 
L 200.699262 221.058428 
L 200.93713 221.362579 
L 201.174999 220.476397 
L 201.650735 221.08344 
L 201.888603 220.202843 
L 202.126471 220.505731 
L 202.364339 219.629564 
L 202.602207 219.932391 
L 202.840075 219.060611 
L 204.743019 221.451163 
L 204.980888 220.591122 
L 205.93236 221.764117 
L 206.170228 220.911406 
L 207.1217 222.071361 
L 207.359568 221.225856 
L 208.073172 222.087809 
L 208.31104 221.24839 
L 211.879061 225.436158 
L 212.11693 224.614458 
L 212.354798 224.886758 
L 212.592666 224.068899 
L 213.30627 224.882956 
L 213.544138 224.070793 
L 215.447082 226.208075 
L 216.160687 223.810538 
L 216.874291 224.60518 
L 217.112159 223.814136 
L 217.587895 224.3412 
L 218.063631 222.770655 
L 218.777235 223.559873 
L 219.015103 222.78116 
L 219.728708 223.565074 
L 220.204444 222.020543 
L 220.68018 222.542212 
L 220.918048 221.775457 
L 221.86952 222.811849 
L 222.107388 222.050928 
L 223.058861 223.077102 
L 223.534597 221.5692 
L 223.772465 221.825278 
L 224.010333 221.075785 
L 224.248201 221.331832 
L 224.486069 220.585548 
L 224.961805 221.096751 
L 225.199673 220.354431 
L 227.102618 222.373048 
L 227.340486 221.639266 
L 228.05409 222.385426 
L 229.005562 219.482325 
L 230.432771 220.971578 
L 230.908507 219.542311 
L 231.859979 220.525642 
L 232.335715 219.110851 
L 234.476528 221.292494 
L 234.952264 219.8988 
L 235.190132 220.13893 
L 235.428 219.445902 
L 237.093076 221.111562 
L 237.330945 220.425307 
L 237.568813 220.661105 
L 237.806681 219.977543 
L 238.996021 221.149446 
L 239.471757 219.794884 
L 241.61257 221.8732 
L 241.850438 221.204635 
L 242.564042 221.887364 
L 242.80191 221.22261 
L 243.753382 222.126328 
L 244.229118 220.807473 
L 245.180591 221.705878 
L 245.418459 221.051694 
L 245.656327 221.275318 
L 246.132063 219.973672 
L 246.607799 220.421435 
L 247.083535 219.129446 
L 248.272876 220.243841 
L 248.510744 219.60346 
L 248.98648 220.046062 
L 249.224348 219.408604 
L 251.36516 221.375565 
L 251.603028 220.744971 
L 251.840897 220.961113 
L 252.078765 220.332793 
L 253.030237 221.193751 
L 253.981709 218.706209 
L 254.695313 219.352409 
L 254.933181 218.736303 
L 255.171049 218.951088 
L 255.408918 218.337157 
L 255.884654 218.766076 
L 256.122522 218.154834 
L 256.836126 218.795536 
L 257.073994 218.18748 
L 257.787598 218.824685 
L 258.025466 218.219783 
L 259.452675 219.482325 
L 259.690543 218.882074 
L 261.117751 220.128085 
L 261.355619 219.532416 
L 262.069223 220.149719 
L 262.307091 219.557077 
L 262.782828 219.96697 
L 263.020696 219.376832 
L 263.7343 219.989231 
L 264.210036 218.816388 
L 264.685772 219.224005 
L 264.92364 218.640775 
L 265.637244 219.249784 
L 266.112981 218.090587 
L 266.826585 218.697851 
L 267.064453 218.12184 
L 268.967397 219.722863 
L 269.443133 218.582533 
L 270.394606 219.374881 
L 270.632474 218.80864 
L 271.583946 219.595046 
L 271.821814 219.03199 
L 272.059682 219.227841 
L 272.29755 218.666601 
L 272.773286 219.057763 
L 273.011154 218.498771 
L 273.249022 218.694081 
L 273.486891 218.136881 
L 275.627703 219.877544 
L 275.865571 219.325587 
L 277.054912 220.278673 
L 277.29278 219.730168 
L 278.957856 221.048598 
L 279.195724 220.504345 
L 279.909328 221.06402 
L 280.147196 220.522295 
L 281.812273 221.815938 
L 282.050141 221.278363 
L 282.763745 221.827602 
L 283.001613 221.292494 
L 283.477349 221.657357 
L 283.715217 221.12429 
L 285.85603 222.749214 
L 286.093898 222.220964 
L 286.569634 222.578343 
L 286.807502 222.052081 
L 288.234711 223.116917 
L 288.472579 222.594189 
L 289.661919 223.472574 
L 290.137655 222.434484 
L 290.851259 222.95912 
L 291.089127 222.442949 
L 291.802732 222.965235 
L 292.0406 222.451339 
L 292.278468 222.625041 
L 292.516336 222.112653 
L 293.705676 222.977305 
L 293.943544 222.467899 
L 294.895016 223.154299 
L 295.132885 222.647475 
L 295.846489 223.159454 
L 296.084357 222.654823 
L 296.322225 222.825105 
L 296.797961 221.819838 
L 297.035829 221.99047 
L 297.511565 220.990252 
L 298.463037 221.671947 
L 298.700906 221.174859 
L 300.60385 222.52364 
L 301.079586 221.538201 
L 302.031058 222.206784 
L 302.268927 221.716997 
L 302.506795 221.883603 
L 302.744663 221.395187 
L 302.982531 221.56178 
L 303.220399 221.074729 
L 306.074816 223.050876 
L 306.312684 222.568844 
L 307.026288 223.056208 
L 307.264156 222.57616 
L 308.215628 223.22261 
L 308.453496 222.744855 
L 308.929232 223.066741 
L 309.1671 222.590612 
L 311.783649 224.3412 
L 312.021517 223.86956 
L 312.259385 224.027091 
L 312.497253 223.55672 
L 312.735121 223.714248 
L 312.97299 223.24514 
L 313.210858 223.402665 
L 313.448726 222.934812 
L 314.638066 223.719264 
L 314.875934 223.253899 
L 316.303142 224.186797 
L 316.54101 223.7242 
L 317.016747 224.033311 
L 317.254615 223.572239 
L 317.492483 223.726639 
L 317.730351 223.266779 
L 318.681823 223.882545 
L 319.157559 222.967936 
L 319.395427 223.121718 
L 319.633295 222.666054 
L 319.871163 222.81983 
L 320.109031 222.365352 
L 321.060504 222.978633 
L 321.53624 222.074669 
L 322.72558 222.837486 
L 323.201316 221.939903 
L 325.104261 223.149752 
L 325.579997 222.260152 
L 326.055733 222.560849 
L 326.293601 222.117883 
L 327.482942 222.86602 
L 327.72081 222.425283 
L 329.385886 223.462759 
L 329.623754 223.024779 
L 330.337358 223.466056 
L 330.575226 223.029714 
L 331.050963 223.323063 
L 331.526699 222.453906 
L 332.002435 222.747235 
L 332.240303 222.314407 
L 336.28406 224.768745 
L 336.521928 224.3412 
L 336.997664 224.625449 
L 337.4734 223.77374 
L 338.187004 224.199722 
L 338.424873 223.775804 
L 340.565685 225.04221 
L 341.279289 223.781905 
L 343.182234 224.8965 
L 343.420102 224.479901 
L 344.133706 224.894524 
L 344.609442 224.065029 
L 345.085178 224.3412 
L 345.323046 223.928045 
L 346.036651 224.3412 
L 346.750255 223.108287 
L 347.701727 223.658654 
L 347.939595 223.250084 
L 348.891067 223.79755 
L 349.128936 223.390643 
L 351.269748 224.61067 
L 351.507616 224.206582 
L 354.599901 225.938638 
L 355.075637 225.138554 
L 355.551373 225.402524 
L 355.789241 225.003962 
L 356.502846 225.398914 
L 356.740714 225.00171 
L 356.978582 225.133139 
L 357.21645 224.736834 
L 358.40579 225.391768 
L 358.643658 224.997251 
L 360.546603 226.035493 
L 360.784471 225.643411 
L 361.498075 226.029832 
L 361.735943 225.639063 
L 361.973811 225.767659 
L 362.211679 225.37776 
L 362.449547 225.506359 
L 362.687415 225.117326 
L 363.163151 225.374316 
L 363.401019 224.986362 
L 364.352492 225.498649 
L 365.066096 224.3412 
L 365.303964 224.469381 
L 365.541832 224.085048 
L 366.96904 224.850984 
L 367.920513 223.324965 
L 368.158381 223.45272 
L 368.634117 222.693855 
L 369.585589 223.204436 
L 369.823457 222.826745 
L 371.488534 223.713742 
L 371.726402 223.338077 
L 372.440006 223.715762 
L 372.677874 223.341303 
L 373.15361 223.592481 
L 373.629346 222.846162 
L 375.770159 223.970116 
L 376.008027 223.599623 
L 379.813916 225.56164 
L 380.289652 224.828611 
L 380.52752 224.949986 
L 380.765388 224.584524 
L 381.241124 224.827088 
L 381.478993 224.462577 
L 382.668333 225.066631 
L 382.906201 224.703634 
L 384.333409 225.423455 
L 384.571277 225.062146 
L 386.236354 225.894845 
L 386.474222 225.535394 
L 387.187826 225.890083 
L 387.425694 225.531736 
L 387.663562 225.649788 
L 387.90143 225.292172 
L 389.328639 225.997803 
L 389.804375 225.286391 
L 390.042243 225.403733 
L 390.280111 225.049018 
L 391.469451 225.633962 
L 391.707319 225.28068 
L 392.183055 225.513779 
L 392.89666 224.458193 
L 393.372396 224.691652 
L 393.610264 224.3412 
L 396.226813 225.61471 
L 396.464681 225.2667 
L 397.891889 225.953627 
L 398.129757 225.607169 
L 400.27057 226.627729 
L 400.746306 225.93942 
L 400.984174 226.052323 
L 401.222042 225.709094 
L 401.697778 225.93474 
L 401.935646 225.592351 
L 403.600723 226.378108 
L 404.076459 225.697165 
L 405.027931 226.143913 
L 405.265799 225.804844 
L 405.503667 225.916291 
L 405.741535 225.577877 
L 406.455139 225.911745 
L 406.693007 225.57431 
L 407.882348 226.128372 
L 408.120216 225.792235 
L 409.071688 226.233274 
L 409.309556 225.898264 
L 409.547424 226.008291 
L 409.785292 225.67392 
L 410.498897 226.003538 
L 410.736765 225.670123 
L 412.639709 226.543523 
L 412.877577 226.21185 
L 414.542654 226.969099 
L 414.780522 226.638993 
L 416.683466 227.496579 
L 416.921334 227.168182 
L 417.159202 227.27486 
L 417.39707 226.947077 
L 418.348543 227.372921 
L 418.586411 227.04621 
L 418.824279 227.152455 
L 419.062147 226.826351 
L 420.727223 227.567009 
L 420.965091 227.242422 
L 421.678696 227.55811 
L 422.154432 226.911183 
L 422.3923 227.016424 
L 422.630168 226.693778 
L 423.58164 227.113891 
L 423.819508 226.792284 
L 424.295244 227.001775 
L 424.533112 226.680905 
L 425.008849 226.890118 
L 425.246717 226.569981 
L 425.484585 226.674521 
L 425.722453 226.354967 
L 426.436057 226.668171 
L 426.673925 226.349491 
L 427.387529 226.661857 
L 427.625397 226.344045 
L 434.285703 229.203308 
L 434.523571 228.889934 
L 435.475043 229.290293 
L 435.712912 228.9779 
L 435.95078 229.077799 
L 436.188648 228.76596 
L 437.377988 229.264176 
L 437.853724 228.643129 
L 438.567328 228.941318 
L 438.805196 228.631823 
L 441.183877 229.618725 
L 441.659613 229.003693 
L 444.751898 230.2711 
L 444.989766 229.965944 
L 445.227634 230.06269 
L 445.465502 229.758062 
L 446.179106 230.047953 
L 446.416975 229.744119 
L 446.892711 229.937025 
L 447.130579 229.633847 
L 448.319919 230.114614 
L 448.795655 229.510745 
L 450.222864 230.085195 
L 450.460732 229.784625 
L 451.174336 230.070598 
L 451.650072 229.471383 
L 452.601544 229.852025 
L 452.839412 229.553504 
L 453.07728 229.648492 
L 453.315148 229.350476 
L 454.504489 229.824263 
L 455.218093 228.934379 
L 456.407433 229.407095 
L 456.645301 229.111842 
L 457.596774 229.488391 
L 458.07251 228.899995 
L 458.786114 229.181922 
L 459.023982 228.888647 
L 459.499718 229.076263 
L 459.737586 228.7836 
L 460.926927 229.251221 
L 461.402663 228.668213 
L 461.640531 228.761635 
L 461.878399 228.470794 
L 462.116267 228.564222 
L 462.354135 228.273861 
L 462.592003 228.367296 
L 462.829871 228.077414 
L 464.732816 228.821732 
L 465.208552 228.244962 
L 466.160024 228.615348 
L 466.397892 228.327969 
L 466.873628 228.512722 
L 467.111496 228.225931 
L 467.349364 228.318257 
L 467.587232 228.031934 
L 468.062969 228.216485 
L 468.300837 227.930746 
L 470.203781 228.665422 
L 470.441649 228.380966 
L 470.917385 228.563759 
L 471.155253 228.279878 
L 472.106726 228.644608 
L 472.344594 228.361532 
L 474.247538 229.086672 
L 474.961142 228.242232 
L 475.674747 228.5134 
L 475.912615 228.232933 
L 476.626219 228.503472 
L 477.101955 227.944216 
L 477.577691 228.12449 
L 477.815559 227.845584 
L 479.718504 228.563316 
L 479.956372 228.285632 
L 480.907844 228.642405 
L 481.145712 228.365492 
L 481.38358 228.454533 
L 481.621448 228.178055 
L 482.572921 228.533617 
L 483.286525 227.707442 
L 483.524393 227.7964 
L 483.762261 227.521761 
L 484.000129 227.610723 
L 484.237997 227.336513 
L 484.475865 227.42548 
L 485.427337 226.332264 
L 485.665205 226.421556 
L 485.903073 226.149153 
L 487.330282 226.683369 
L 487.56815 226.411919 
L 488.043886 226.589378 
L 488.281754 226.318453 
L 488.75749 226.495713 
L 488.995358 226.225311 
L 489.708963 226.490748 
L 489.946831 226.220972 
L 490.660435 226.485807 
L 490.898303 226.216653 
L 491.136171 226.304833 
L 491.374039 226.036092 
L 491.849775 226.212354 
L 492.087643 225.944128 
L 494.466324 226.820444 
L 495.179928 226.020675 
L 496.1314 226.369636 
L 496.369268 226.104057 
L 497.320741 226.451843 
L 497.558609 226.186968 
L 498.034345 226.360473 
L 498.272213 226.096098 
L 499.461553 226.528651 
L 499.937289 226.001794 
L 500.650894 226.260756 
L 501.12663 225.735675 
L 501.840234 225.994359 
L 502.078102 225.732556 
L 502.31597 225.818689 
L 502.553838 225.557276 
L 503.029574 225.72945 
L 503.267442 225.468524 
L 503.981046 225.726358 
L 504.218915 225.466015 
L 505.170387 225.808845 
L 505.408255 225.549178 
L 506.121859 225.805592 
L 506.359727 225.546502 
L 507.549067 225.972451 
L 507.786936 225.714127 
L 508.262672 225.88404 
L 508.738408 225.368627 
L 509.214144 225.538547 
L 509.452012 225.281455 
L 510.403484 225.620553 
L 511.117088 224.8521 
L 512.782165 225.443923 
L 513.257901 224.934327 
L 514.447241 225.355226 
L 514.922978 224.847663 
L 517.301658 225.684474 
L 517.539526 225.432021 
L 517.777394 225.515297 
L 518.25313 225.01139 
L 518.490999 225.094757 
L 518.728867 224.843301 
L 519.680339 225.176238 
L 519.918207 224.925413 
L 521.107547 225.340027 
L 521.345415 225.089919 
L 522.059019 225.337892 
L 522.534756 224.839014 
L 525.151304 225.743443 
L 525.62704 225.247572 
L 526.340645 225.492933 
L 526.578513 225.245655 
L 527.292117 225.490501 
L 527.529985 225.243746 
L 528.243589 225.488079 
L 528.481457 225.241845 
L 529.43293 225.56677 
L 529.670798 225.321141 
L 530.62227 225.645049 
L 530.860138 225.400022 
L 532.049478 225.803432 
L 532.287346 225.55909 
L 533.952423 226.120934 
L 534.903895 225.14849 
L 535.379631 225.308943 
L 535.617499 225.066631 
L 535.855367 225.146817 
L 536.093235 224.90484 
L 536.80684 225.14515 
L 537.044708 224.903674 
L 537.99618 225.223265 
L 538.234048 224.982371 
L 538.471916 225.062146 
L 538.709784 224.821583 
L 538.947652 224.901359 
L 539.18552 224.661126 
L 540.136993 224.979738 
L 540.612729 224.500671 
L 541.326333 224.739265 
L 541.802069 224.261669 
L 542.515673 224.500019 
L 542.753541 224.261831 
L 542.991409 224.3412 
L 543.467145 223.865714 
L 543.942882 224.024532 
L 544.656486 223.313599 
L 546.55943 223.94757 
L 546.797298 223.71171 
L 547.748771 224.027091 
L 547.986639 223.791787 
L 549.175979 224.18462 
L 550.127451 223.247343 
L 550.603187 223.404549 
L 550.841055 223.170974 
L 551.078924 223.249537 
L 552.268264 222.085554 
L 552.268264 222.085554 
" style="fill:none;stroke:#348abd;stroke-linecap:square;stroke-width:1.5;"/>
   </g>
   <g id="line2d_35">
    <path clip-path="url(#pac91c1db59)" d="M 76.77 226.770638 
L 552.744 226.770638 
" style="fill:none;stroke:#000000;stroke-dasharray:5.55,2.4;stroke-dashoffset:0;stroke-width:1.5;"/>
   </g>
   <g id="line2d_36">
    <path clip-path="url(#pac91c1db59)" d="M 77.007868 379.8252 
L 77.245736 379.8252 
L 77.483604 172.5132 
L 77.95934 255.438 
L 78.197208 172.5132 
L 78.672945 224.3412 
L 78.910813 241.6172 
L 79.148681 193.2444 
L 79.624417 224.3412 
L 80.100153 157.7052 
L 80.338021 172.5132 
L 80.575889 146.5992 
L 80.813757 160.318376 
L 81.051625 137.9612 
L 81.289493 150.690884 
L 81.765229 113.2812 
L 82.478834 146.5992 
L 82.716702 131.0508 
L 83.192438 149.478533 
L 83.430306 135.4932 
L 83.668174 143.918441 
L 83.906042 131.0508 
L 84.381778 146.5992 
L 84.619646 134.820109 
L 85.571118 161.307146 
L 86.046855 172.5132 
L 86.284723 162.1476 
L 86.522591 167.45681 
L 86.760459 157.7052 
L 87.236195 167.801564 
L 87.474063 158.6924 
L 87.711931 163.499635 
L 87.949799 154.869626 
L 88.425535 164.051486 
L 88.901271 148.123553 
L 89.852744 164.974582 
L 90.090612 157.7052 
L 91.279952 175.911757 
L 91.51782 179.200684 
L 91.993556 166.0347 
L 92.469292 172.5132 
L 93.420765 148.8204 
L 93.896501 155.2372 
L 94.372237 144.498065 
L 95.799445 162.1476 
L 97.226654 177.334409 
L 97.70239 181.936473 
L 98.178126 172.5132 
L 98.89173 179.200684 
L 99.367466 170.330968 
L 101.032543 184.708024 
L 101.508279 188.460277 
L 101.746147 184.3596 
L 102.221883 188.013163 
L 102.697619 180.12098 
L 104.362696 192.172097 
L 104.838432 195.352658 
L 105.552036 184.506456 
L 106.26564 189.23191 
L 106.741376 182.3852 
L 107.454981 186.976828 
L 107.692849 183.676154 
L 108.644321 189.531349 
L 108.882189 186.334 
L 109.357925 189.158689 
L 109.595793 186.033548 
L 109.833661 187.427732 
L 110.785133 175.412669 
L 111.26087 178.232152 
L 111.974474 169.711686 
L 112.925946 175.240989 
L 113.163814 172.5132 
L 114.115286 177.795034 
L 114.353154 175.137403 
L 114.828891 177.696 
L 115.066759 175.088504 
L 115.542495 177.600611 
L 116.018231 172.5132 
L 116.256099 173.762067 
L 116.493967 171.271811 
L 116.969703 173.739898 
L 117.207571 171.293718 
L 119.348384 181.778541 
L 120.775592 188.201676 
L 121.01346 185.888168 
L 121.727064 188.966533 
L 121.964933 186.697705 
L 122.916405 190.679715 
L 123.630009 184.088997 
L 123.867877 185.077564 
L 124.105745 182.930888 
L 124.343613 183.91536 
L 124.581481 181.795827 
L 125.057217 183.746855 
L 125.532954 179.592146 
L 126.00869 181.526765 
L 126.246558 179.490046 
L 127.435898 184.192749 
L 127.673766 182.200677 
L 127.911634 183.11986 
L 128.149502 181.1512 
L 128.38737 182.066748 
L 128.625238 180.12098 
L 128.863106 181.032871 
L 129.100975 179.109491 
L 130.290315 183.56984 
L 130.528183 181.686297 
L 131.241787 184.282003 
L 131.717523 180.590291 
L 134.096204 188.8573 
L 134.334072 187.07644 
L 134.809808 188.656348 
L 135.047676 186.898114 
L 135.285544 187.682371 
L 135.523412 185.942317 
L 137.664225 192.758513 
L 137.902093 191.066414 
L 138.139961 191.798037 
L 138.377829 190.122714 
L 138.853565 191.576372 
L 139.091433 189.921078 
L 141.470114 196.902847 
L 141.94585 193.698368 
L 144.086663 199.617596 
L 144.324531 198.062214 
L 144.562399 198.699979 
L 144.800267 197.158683 
L 145.038135 197.795151 
L 145.276003 196.2677 
L 145.989607 198.160045 
L 146.227475 196.652268 
L 146.465343 197.277432 
L 146.703211 195.782914 
L 149.31976 202.420505 
L 149.557628 200.967788 
L 150.033364 202.1292 
L 150.271232 200.69153 
L 152.174177 205.212254 
L 152.649913 202.40772 
L 152.887781 202.96215 
L 153.125649 201.57563 
L 153.363517 202.1292 
L 153.601385 200.753844 
L 154.31499 202.40174 
L 154.790726 199.691298 
L 155.266462 200.783018 
L 155.50433 199.44497 
L 155.980066 200.528335 
L 156.69367 196.5762 
L 156.931538 197.119966 
L 157.645142 193.2444 
L 157.88301 193.791558 
L 158.120879 192.516989 
L 159.548087 195.746441 
L 160.023823 193.2444 
L 160.737427 194.830073 
L 160.975295 193.595776 
L 162.402504 196.6996 
L 162.87824 194.275233 
L 163.116108 194.78639 
L 163.353976 193.586123 
L 165.732657 198.565778 
L 166.208393 196.221753 
L 167.873469 199.57743 
L 168.111337 198.4272 
L 169.06281 200.297282 
L 169.538546 198.028523 
L 170.25215 199.416284 
L 170.490018 198.295657 
L 172.155094 201.464502 
L 173.106567 197.083511 
L 173.344435 197.533614 
L 173.582303 196.453406 
L 173.820171 196.902847 
L 174.058039 195.829464 
L 174.771643 197.169239 
L 175.723115 192.945392 
L 176.674588 194.7252 
L 178.339664 187.563954 
L 178.577532 188.013163 
L 178.8154 187.010543 
L 179.291136 187.905274 
L 179.529004 186.909867 
L 179.766873 187.355399 
L 180.004741 186.365845 
L 181.194081 188.569255 
L 181.669817 186.616057 
L 182.621289 188.352769 
L 182.859157 187.387604 
L 184.048498 189.521058 
L 184.286366 188.56612 
L 184.524234 188.988326 
L 184.762102 188.038768 
L 184.99997 188.460277 
L 185.237838 187.516042 
L 185.951442 188.772965 
L 186.427178 186.903621 
L 189.281595 191.798037 
L 189.519463 190.882618 
L 190.233067 192.070936 
L 190.470936 191.162606 
L 191.660276 193.115635 
L 191.898144 192.216407 
L 192.37388 192.988459 
L 192.611748 192.095032 
L 193.56322 193.624402 
L 193.801088 192.738761 
L 194.514693 193.872618 
L 194.752561 192.993619 
L 195.228297 193.743947 
L 195.466165 192.870491 
L 195.704033 193.2444 
L 195.941901 192.375428 
L 197.369109 194.593768 
L 197.606978 193.734113 
L 199.272054 196.263507 
L 199.509922 195.413944 
L 199.985658 196.125957 
L 200.461394 194.440431 
L 200.699262 194.796256 
L 200.93713 193.959269 
L 201.650735 195.02136 
L 202.364339 192.537655 
L 203.077943 193.595776 
L 203.315811 192.776779 
L 204.029415 193.825649 
L 204.267283 193.012334 
L 204.743019 193.706806 
L 205.218756 192.092667 
L 205.694492 192.785407 
L 206.170228 191.186524 
L 207.359568 192.904544 
L 207.597436 192.113607 
L 208.073172 192.793722 
L 208.31104 192.007276 
L 209.024645 193.020682 
L 209.500381 191.461071 
L 209.738249 191.798037 
L 209.976117 191.0232 
L 210.451853 191.695093 
L 210.689721 190.924568 
L 212.11693 192.91649 
L 212.354798 192.153284 
L 213.30627 193.461102 
L 213.544138 192.703586 
L 214.019874 193.352188 
L 214.733478 191.099793 
L 215.447082 192.070936 
L 215.684951 191.327474 
L 215.922819 191.649692 
L 216.160687 190.909487 
L 216.398555 191.231319 
L 216.874291 189.759869 
L 218.301499 191.676494 
L 218.539367 190.948663 
L 219.49084 192.20784 
L 219.728708 191.48518 
L 220.442312 192.420644 
L 220.68018 191.70241 
L 221.155916 192.322254 
L 221.393784 191.607726 
L 222.345256 192.837906 
L 222.583124 192.128365 
L 224.248201 194.247523 
L 224.723937 192.844441 
L 227.102618 195.802997 
L 227.340486 195.111191 
L 228.05409 195.982483 
L 228.291958 195.294738 
L 229.24343 196.446255 
L 229.481298 195.763144 
L 229.957034 196.334765 
L 230.194903 195.655005 
L 232.097847 197.911301 
L 232.335715 197.238484 
L 232.811451 197.795151 
L 233.525055 195.792544 
L 233.762924 196.071382 
L 234.000792 195.408474 
L 234.23866 195.687049 
L 234.714396 194.368381 
L 234.952264 194.647263 
L 235.428 193.337644 
L 236.141604 194.172663 
L 236.379472 193.522464 
L 237.330945 194.62648 
L 237.568813 193.980419 
L 238.996021 195.615417 
L 239.233889 194.974529 
L 239.947493 195.782914 
L 240.185361 195.145514 
L 240.661097 195.681595 
L 241.136834 194.414468 
L 241.61257 194.949564 
L 242.80191 191.818759 
L 243.277646 192.35592 
L 243.515514 191.736139 
L 243.753382 192.004072 
L 243.99125 191.386554 
L 244.942723 192.452685 
L 245.180591 191.838895 
L 245.418459 192.104038 
L 245.894195 190.882618 
L 248.272876 193.503181 
L 248.510744 192.899837 
L 249.224348 193.673321 
L 249.462216 193.073068 
L 249.937952 193.586123 
L 250.413688 192.392433 
L 251.36516 193.413865 
L 251.603028 192.821314 
L 252.792369 194.084854 
L 253.030237 193.496196 
L 253.268105 193.747313 
L 253.743841 192.575652 
L 254.219577 193.077661 
L 254.457445 192.49508 
L 255.646786 193.740626 
L 255.884654 193.161806 
L 256.36039 193.656278 
L 256.598258 193.079867 
L 257.073994 193.572598 
L 257.311862 192.998575 
L 257.787598 193.489578 
L 258.025466 192.917924 
L 259.214807 194.136355 
L 259.452675 193.568325 
L 261.831355 195.962372 
L 262.307091 194.839108 
L 263.496432 196.017363 
L 263.7343 195.459948 
L 264.447904 196.160957 
L 264.92364 195.052811 
L 265.637244 195.750943 
L 266.112981 194.650788 
L 267.540189 196.036133 
L 267.778057 195.490495 
L 269.205265 196.857625 
L 269.443133 196.315689 
L 270.156738 196.992846 
L 270.394606 196.453406 
L 270.870342 196.902847 
L 271.10821 196.365499 
L 272.059682 197.259334 
L 272.29755 196.72482 
L 273.724759 198.051635 
L 273.962627 197.520679 
L 274.438363 197.959438 
L 274.914099 196.902847 
L 276.817043 198.642893 
L 277.29278 197.597214 
L 279.433592 199.522158 
L 279.67146 199.004417 
L 279.909328 199.216151 
L 280.147196 198.699979 
L 280.385064 198.911574 
L 280.622933 198.396962 
L 281.812273 199.44933 
L 282.050141 198.937673 
L 283.001613 199.772217 
L 283.239481 199.263135 
L 284.190954 200.091402 
L 284.66669 199.079497 
L 284.904558 199.286064 
L 285.142426 198.782186 
L 285.380294 198.988621 
L 285.85603 197.984982 
L 286.807502 198.80872 
L 287.04537 198.309942 
L 287.521106 198.719683 
L 287.758975 198.222693 
L 288.234711 198.631247 
L 288.472579 198.136031 
L 292.278468 201.34467 
L 292.516336 200.855745 
L 293.22994 201.445754 
L 293.467808 200.958864 
L 293.943544 201.350685 
L 294.41928 200.38137 
L 295.608621 201.356609 
L 295.846489 200.875102 
L 296.084357 201.069191 
L 296.322225 200.58904 
L 297.035829 201.169718 
L 297.273697 200.69153 
L 298.225169 201.46117 
L 298.463037 200.985234 
L 298.700906 201.176917 
L 298.938774 200.702305 
L 299.41451 201.085046 
L 299.652378 200.612052 
L 301.079586 201.752326 
L 301.317454 201.282132 
L 301.79319 201.659602 
L 302.268927 200.723377 
L 302.744663 201.100434 
L 302.982531 200.634386 
L 304.647607 201.943714 
L 304.885475 201.480674 
L 305.836948 202.221462 
L 306.074816 201.760536 
L 306.550552 202.1292 
L 307.026288 201.211349 
L 308.453496 202.311639 
L 308.691364 201.855822 
L 308.929232 202.038167 
L 309.1671 201.583562 
L 309.404969 201.765813 
L 309.880705 200.859943 
L 310.594309 201.406124 
L 310.832177 200.955395 
L 311.783649 201.679564 
L 312.021517 201.230838 
L 312.259385 201.411236 
L 312.735121 200.517039 
L 313.448726 201.057666 
L 313.686594 200.612718 
L 314.400198 201.150894 
L 314.638066 200.707632 
L 315.827406 201.598764 
L 316.065274 201.157701 
L 317.016747 201.865295 
L 317.254615 201.42615 
L 319.395427 203.000259 
L 320.109031 201.694948 
L 320.584768 202.042519 
L 320.822636 201.609621 
L 322.249844 202.645758 
L 322.487712 202.21521 
L 323.677052 203.070749 
L 323.914921 202.642278 
L 324.152789 202.812646 
L 324.390657 202.385246 
L 327.245073 204.407354 
L 327.72081 203.560874 
L 327.958678 203.727791 
L 328.196546 203.305995 
L 328.672282 203.639364 
L 328.91015 203.218845 
L 330.337358 204.212877 
L 330.575226 203.79458 
L 331.050963 204.123917 
L 331.288831 203.706875 
L 331.764567 204.035454 
L 332.002435 203.61966 
L 333.191775 204.43694 
L 333.429643 204.023087 
L 336.28406 205.956749 
L 336.521928 205.546431 
L 336.759796 205.705881 
L 336.997664 205.296542 
L 337.235532 205.455929 
L 337.949136 204.233069 
L 338.424873 204.552327 
L 338.662741 204.146639 
L 340.327817 205.256521 
L 340.565685 204.853124 
L 341.755025 205.638457 
L 341.992894 205.236888 
L 342.944366 205.860975 
L 343.182234 205.461 
L 344.371574 206.235952 
L 344.84731 205.440306 
L 346.512387 206.516756 
L 346.988123 205.726918 
L 348.177463 206.489838 
L 348.653199 205.704885 
L 350.080408 206.61413 
L 351.507616 204.283091 
L 351.745484 204.434944 
L 352.22122 203.663708 
L 352.459088 203.815702 
L 352.696957 203.431283 
L 353.648429 204.037447 
L 353.886297 203.654488 
L 355.075637 204.407354 
L 355.313505 204.02604 
L 359.59513 206.687424 
L 359.832999 206.310282 
L 360.070867 206.455971 
L 360.784471 205.328919 
L 361.022339 205.474941 
L 361.260207 205.100705 
L 361.498075 205.246674 
L 361.973811 204.500456 
L 362.687415 204.938039 
L 362.925283 204.566427 
L 363.401019 204.857313 
L 364.114624 203.747293 
L 365.303964 204.473088 
L 365.7797 203.73797 
L 366.255436 204.02735 
L 366.493304 203.661062 
L 369.823457 205.662927 
L 370.061325 205.299769 
L 370.299193 205.4412 
L 370.537061 205.07881 
L 371.96427 205.923675 
L 372.202138 205.562939 
L 372.677874 205.843104 
L 372.915742 205.483301 
L 373.391478 205.762919 
L 373.867214 205.045748 
L 375.532291 206.019837 
L 375.770159 205.663329 
L 376.008027 205.801772 
L 376.245895 205.446004 
L 376.483763 205.5844 
L 376.959499 204.874899 
L 377.910972 205.427664 
L 378.14884 205.074438 
L 379.33818 205.761351 
L 379.576048 205.409527 
L 379.813916 205.546431 
L 380.051784 205.195327 
L 380.52752 205.468827 
L 381.241124 204.419813 
L 381.478993 204.556741 
L 381.716861 204.208326 
L 381.954729 204.345206 
L 382.192597 203.997499 
L 382.430465 204.13433 
L 382.668333 203.787328 
L 382.906201 203.924109 
L 383.144069 203.577809 
L 384.571277 204.39503 
L 384.809145 204.050238 
L 385.284882 204.321286 
L 385.52275 203.977348 
L 385.998486 204.247883 
L 386.236354 203.904794 
L 386.71209 204.174818 
L 386.949958 203.832574 
L 387.187826 203.967434 
L 387.663562 203.284836 
L 387.90143 203.419806 
L 388.377166 202.739606 
L 388.852903 203.009554 
L 389.090771 202.670543 
L 389.566507 202.93998 
L 389.804375 202.601796 
L 390.042243 202.736362 
L 390.280111 202.398845 
L 391.945187 203.336192 
L 392.183055 203.000259 
L 392.658792 203.266561 
L 393.134528 202.596821 
L 394.323868 203.260598 
L 394.561736 202.927236 
L 395.27534 203.323572 
L 395.513208 202.991158 
L 396.702549 203.648534 
L 396.940417 203.31736 
L 398.367625 204.100679 
L 398.605493 203.770885 
L 398.843361 203.90091 
L 399.319097 203.243076 
L 400.032702 203.632882 
L 400.27057 203.305129 
L 401.222042 203.822784 
L 401.45991 203.496092 
L 403.838591 204.778486 
L 404.076459 204.453712 
L 404.552195 204.708242 
L 404.790063 204.384225 
L 405.503667 204.765067 
L 405.741535 204.441946 
L 405.979403 204.568668 
L 406.217271 204.246156 
L 406.930876 204.62565 
L 407.168744 204.304025 
L 408.595952 205.058955 
L 409.309556 204.099363 
L 410.261028 204.600721 
L 410.736765 203.964379 
L 411.450369 204.339349 
L 411.688237 204.022268 
L 412.163973 204.271634 
L 412.401841 203.955275 
L 412.639709 204.079829 
L 412.877577 203.764054 
L 413.115445 203.888566 
L 413.353313 203.573372 
L 414.542654 204.193977 
L 414.780522 203.8799 
L 417.872807 205.474941 
L 418.110675 205.163034 
L 418.348543 205.284665 
L 419.300015 204.0419 
L 419.537883 204.163887 
L 420.251487 203.236724 
L 420.489355 203.35893 
L 420.727223 203.05086 
L 420.965091 203.173026 
L 421.20296 202.865509 
L 421.440828 202.987635 
L 422.630168 201.457035 
L 423.105904 201.702046 
L 423.58164 201.093249 
L 423.819508 201.215752 
L 424.057376 200.912104 
L 424.295244 201.034563 
L 424.770981 200.42876 
L 425.008849 200.551298 
L 425.246717 200.24914 
L 425.484585 200.371634 
L 425.722453 200.07001 
L 425.960321 200.192459 
L 426.436057 199.590686 
L 427.149661 199.957762 
L 427.625397 199.358347 
L 428.57687 199.846425 
L 428.814738 199.547805 
L 429.528342 199.912493 
L 429.76621 199.614634 
L 430.004078 199.735988 
L 430.241946 199.438648 
L 430.95555 199.802087 
L 431.193418 199.505501 
L 431.669154 199.747216 
L 431.907022 199.451263 
L 432.620627 199.812975 
L 433.334231 198.928538 
L 434.285703 199.409966 
L 434.523571 199.116402 
L 434.999307 199.356387 
L 435.712912 198.478719 
L 436.426516 198.838533 
L 436.664384 198.547093 
L 436.902252 198.666827 
L 437.14012 198.375885 
L 438.091592 198.853698 
L 438.32946 198.563589 
L 439.280933 199.039342 
L 439.518801 198.750063 
L 440.232405 199.105577 
L 440.470273 198.817012 
L 440.708141 198.935318 
L 440.946009 198.64724 
L 441.659613 199.001565 
L 441.897481 198.714195 
L 442.135349 198.832106 
L 442.373217 198.545221 
L 442.611085 198.663088 
L 443.086822 198.090655 
L 443.32469 198.208587 
L 443.800426 197.637856 
L 444.51403 197.991389 
L 444.751898 197.706901 
L 446.654843 198.643844 
L 446.892711 198.360583 
L 447.844183 198.825877 
L 448.082051 198.543406 
L 450.460732 199.697332 
L 450.6986 199.416284 
L 450.936468 199.530975 
L 451.174336 199.250389 
L 452.601544 199.936116 
L 452.839412 199.656517 
L 453.315148 199.884146 
L 453.553016 199.605109 
L 454.028753 199.832373 
L 454.504489 199.275769 
L 455.931697 199.955378 
L 456.169565 199.678221 
L 459.499718 201.24569 
L 459.737586 200.970313 
L 460.689058 201.413572 
L 460.926927 201.138944 
L 461.640531 201.470253 
L 462.116267 200.922622 
L 462.354135 201.032988 
L 462.592003 200.75978 
L 464.732816 201.747878 
L 464.970684 201.475906 
L 465.44642 201.694204 
L 465.684288 201.422763 
L 467.587232 202.29143 
L 467.8251 202.021112 
L 468.776573 202.452676 
L 469.252309 201.913811 
L 470.203781 202.344068 
L 471.155253 201.271801 
L 473.058198 202.1292 
L 473.533934 201.596538 
L 477.101955 203.185029 
L 477.577691 202.656488 
L 477.815559 202.76157 
L 478.053427 202.497864 
L 480.432108 203.54281 
L 481.145712 202.756362 
L 481.621448 202.964434 
L 481.859316 202.703086 
L 482.335052 202.910854 
L 482.572921 202.649997 
L 482.810789 202.753791 
L 483.048657 202.493331 
L 488.995358 205.051494 
L 489.471094 204.536033 
L 490.184699 204.838604 
L 490.422567 204.581589 
L 490.898303 204.782902 
L 491.136171 204.526362 
L 491.849775 204.827735 
L 492.325511 204.316071 
L 492.563379 204.416477 
L 493.039115 203.90616 
L 493.276984 204.006628 
L 493.514852 203.751995 
L 493.75272 203.852436 
L 494.228456 203.344215 
L 494.94206 203.645377 
L 495.179928 203.391963 
L 496.1314 203.792265 
L 496.607136 203.286993 
L 498.272213 203.984378 
L 498.510081 203.732774 
L 500.175157 204.425272 
L 500.650894 203.924109 
L 501.12663 204.121308 
L 501.364498 203.871318 
L 501.602366 203.969836 
L 501.840234 203.720211 
L 503.267442 204.309519 
L 503.743178 203.812115 
L 504.932519 204.30104 
L 505.646123 203.558258 
L 505.883991 203.655967 
L 506.121859 203.409005 
L 506.359727 203.506688 
L 506.597595 203.260082 
L 506.835463 203.35774 
L 507.073331 203.111489 
L 507.549067 203.306645 
L 507.786936 203.060829 
L 508.024804 203.158327 
L 508.262672 202.912865 
L 509.452012 203.399155 
L 509.68988 203.154369 
L 511.354957 203.831269 
L 511.830693 203.343634 
L 512.782165 203.728755 
L 513.020033 203.485658 
L 513.971505 203.869422 
L 514.209373 203.62691 
L 514.447241 203.72267 
L 514.685109 203.4805 
L 515.87445 203.95814 
L 516.112318 203.71663 
L 517.539526 204.286869 
L 517.777394 204.046093 
L 518.25313 204.23551 
L 518.490999 203.995152 
L 518.728867 204.089786 
L 519.442471 203.370494 
L 519.680339 203.46526 
L 519.918207 203.226089 
L 521.821151 203.981189 
L 522.296888 203.50485 
L 522.772624 203.692925 
L 523.010492 203.45529 
L 523.24836 203.549253 
L 523.724096 203.074895 
L 524.675568 203.45036 
L 525.151304 202.977616 
L 525.62704 203.165054 
L 525.864909 202.929208 
L 526.102777 203.022854 
L 526.578513 202.552062 
L 526.816381 202.645758 
L 527.292117 202.17611 
L 528.243589 202.550502 
L 528.719325 202.082438 
L 529.43293 202.362642 
L 529.908666 201.896003 
L 530.384402 202.08261 
L 530.62227 201.849804 
L 530.860138 201.943033 
L 531.098006 201.710545 
L 532.763082 202.360937 
L 533.000951 202.1292 
L 533.238819 202.221798 
L 533.476687 201.990375 
L 534.190291 202.267808 
L 534.428159 202.036842 
L 535.855367 202.589552 
L 536.093235 202.359257 
L 537.520444 202.908971 
L 537.758312 202.679342 
L 539.18552 203.226089 
L 539.423388 202.997124 
L 540.136993 203.269446 
L 540.612729 202.812646 
L 541.802069 203.265364 
L 542.515673 202.582969 
L 542.991409 202.763829 
L 543.229277 202.536967 
L 544.18075 202.89786 
L 544.418618 202.671507 
L 545.132222 202.941421 
L 545.37009 202.715507 
L 545.607958 202.805364 
L 546.083694 202.35436 
L 548.224507 203.160231 
L 548.700243 202.711369 
L 549.175979 202.889732 
L 549.651715 202.442045 
L 549.889583 202.531227 
L 550.127451 202.307789 
L 550.841055 202.575 
L 551.078924 202.351988 
L 552.268264 202.795893 
L 552.268264 202.795893 
" style="fill:none;stroke:#988ed5;stroke-linecap:square;stroke-width:1.5;"/>
   </g>
   <g id="patch_3">
    <path d="M 76.77 395.3736 
L 76.77 53.3088 
" style="fill:none;stroke:#ffffff;stroke-linecap:square;stroke-linejoin:miter;"/>
   </g>
   <g id="patch_4">
    <path d="M 552.744 395.3736 
L 552.744 53.3088 
" style="fill:none;stroke:#ffffff;stroke-linecap:square;stroke-linejoin:miter;"/>
   </g>
   <g id="patch_5">
    <path d="M 76.77 395.3736 
L 552.744 395.3736 
" style="fill:none;stroke:#ffffff;stroke-linecap:square;stroke-linejoin:miter;"/>
   </g>
   <g id="patch_6">
    <path d="M 76.77 53.3088 
L 552.744 53.3088 
" style="fill:none;stroke:#ffffff;stroke-linecap:square;stroke-linejoin:miter;"/>
   </g>
   <g id="text_18">
    <!-- Proportion of permutations with even cycles -->
    <defs>
     <path d="M 37.109375 75.984375 
L 37.109375 68.5 
L 28.515625 68.5 
Q 23.6875 68.5 21.796875 66.546875 
Q 19.921875 64.59375 19.921875 59.515625 
L 19.921875 54.6875 
L 34.71875 54.6875 
L 34.71875 47.703125 
L 19.921875 47.703125 
L 19.921875 0 
L 10.890625 0 
L 10.890625 47.703125 
L 2.296875 47.703125 
L 2.296875 54.6875 
L 10.890625 54.6875 
L 10.890625 58.5 
Q 10.890625 67.625 15.140625 71.796875 
Q 19.390625 75.984375 28.609375 75.984375 
z
" id="DejaVuSans-66"/>
     <path d="M 8.5 21.578125 
L 8.5 54.6875 
L 17.484375 54.6875 
L 17.484375 21.921875 
Q 17.484375 14.15625 20.5 10.265625 
Q 23.53125 6.390625 29.59375 6.390625 
Q 36.859375 6.390625 41.078125 11.03125 
Q 45.3125 15.671875 45.3125 23.6875 
L 45.3125 54.6875 
L 54.296875 54.6875 
L 54.296875 0 
L 45.3125 0 
L 45.3125 8.40625 
Q 42.046875 3.421875 37.71875 1 
Q 33.40625 -1.421875 27.6875 -1.421875 
Q 18.265625 -1.421875 13.375 4.4375 
Q 8.5 10.296875 8.5 21.578125 
z
M 31.109375 56 
z
" id="DejaVuSans-75"/>
     <path d="M 4.203125 54.6875 
L 13.1875 54.6875 
L 24.421875 12.015625 
L 35.59375 54.6875 
L 46.1875 54.6875 
L 57.421875 12.015625 
L 68.609375 54.6875 
L 77.59375 54.6875 
L 63.28125 0 
L 52.6875 0 
L 40.921875 44.828125 
L 29.109375 0 
L 18.5 0 
z
" id="DejaVuSans-77"/>
     <path d="M 54.890625 33.015625 
L 54.890625 0 
L 45.90625 0 
L 45.90625 32.71875 
Q 45.90625 40.484375 42.875 44.328125 
Q 39.84375 48.1875 33.796875 48.1875 
Q 26.515625 48.1875 22.3125 43.546875 
Q 18.109375 38.921875 18.109375 30.90625 
L 18.109375 0 
L 9.078125 0 
L 9.078125 75.984375 
L 18.109375 75.984375 
L 18.109375 46.1875 
Q 21.34375 51.125 25.703125 53.5625 
Q 30.078125 56 35.796875 56 
Q 45.21875 56 50.046875 50.171875 
Q 54.890625 44.34375 54.890625 33.015625 
z
" id="DejaVuSans-68"/>
     <path d="M 2.984375 54.6875 
L 12.5 54.6875 
L 29.59375 8.796875 
L 46.6875 54.6875 
L 56.203125 54.6875 
L 35.6875 0 
L 23.484375 0 
z
" id="DejaVuSans-76"/>
     <path d="M 48.78125 52.59375 
L 48.78125 44.1875 
Q 44.96875 46.296875 41.140625 47.34375 
Q 37.3125 48.390625 33.40625 48.390625 
Q 24.65625 48.390625 19.8125 42.84375 
Q 14.984375 37.3125 14.984375 27.296875 
Q 14.984375 17.28125 19.8125 11.734375 
Q 24.65625 6.203125 33.40625 6.203125 
Q 37.3125 6.203125 41.140625 7.25 
Q 44.96875 8.296875 48.78125 10.40625 
L 48.78125 2.09375 
Q 45.015625 0.34375 40.984375 -0.53125 
Q 36.96875 -1.421875 32.421875 -1.421875 
Q 20.0625 -1.421875 12.78125 6.34375 
Q 5.515625 14.109375 5.515625 27.296875 
Q 5.515625 40.671875 12.859375 48.328125 
Q 20.21875 56 33.015625 56 
Q 37.15625 56 41.109375 55.140625 
Q 45.0625 54.296875 48.78125 52.59375 
z
" id="DejaVuSans-63"/>
     <path d="M 32.171875 -5.078125 
Q 28.375 -14.84375 24.75 -17.8125 
Q 21.140625 -20.796875 15.09375 -20.796875 
L 7.90625 -20.796875 
L 7.90625 -13.28125 
L 13.1875 -13.28125 
Q 16.890625 -13.28125 18.9375 -11.515625 
Q 21 -9.765625 23.484375 -3.21875 
L 25.09375 0.875 
L 2.984375 54.6875 
L 12.5 54.6875 
L 29.59375 11.921875 
L 46.6875 54.6875 
L 56.203125 54.6875 
z
" id="DejaVuSans-79"/>
    </defs>
    <g transform="translate(155.311875 47.3088)scale(0.144 -0.144)">
     <use xlink:href="#DejaVuSans-50"/>
     <use x="60.287109" xlink:href="#DejaVuSans-72"/>
     <use x="101.369141" xlink:href="#DejaVuSans-6f"/>
     <use x="162.550781" xlink:href="#DejaVuSans-70"/>
     <use x="226.027344" xlink:href="#DejaVuSans-6f"/>
     <use x="287.208984" xlink:href="#DejaVuSans-72"/>
     <use x="328.322266" xlink:href="#DejaVuSans-74"/>
     <use x="367.53125" xlink:href="#DejaVuSans-69"/>
     <use x="395.314453" xlink:href="#DejaVuSans-6f"/>
     <use x="456.496094" xlink:href="#DejaVuSans-6e"/>
     <use x="519.875" xlink:href="#DejaVuSans-20"/>
     <use x="551.662109" xlink:href="#DejaVuSans-6f"/>
     <use x="612.84375" xlink:href="#DejaVuSans-66"/>
     <use x="648.048828" xlink:href="#DejaVuSans-20"/>
     <use x="679.835938" xlink:href="#DejaVuSans-70"/>
     <use x="743.3125" xlink:href="#DejaVuSans-65"/>
     <use x="804.835938" xlink:href="#DejaVuSans-72"/>
     <use x="845.933594" xlink:href="#DejaVuSans-6d"/>
     <use x="943.345703" xlink:href="#DejaVuSans-75"/>
     <use x="1006.724609" xlink:href="#DejaVuSans-74"/>
     <use x="1045.933594" xlink:href="#DejaVuSans-61"/>
     <use x="1107.212891" xlink:href="#DejaVuSans-74"/>
     <use x="1146.421875" xlink:href="#DejaVuSans-69"/>
     <use x="1174.205078" xlink:href="#DejaVuSans-6f"/>
     <use x="1235.386719" xlink:href="#DejaVuSans-6e"/>
     <use x="1298.765625" xlink:href="#DejaVuSans-73"/>
     <use x="1350.865234" xlink:href="#DejaVuSans-20"/>
     <use x="1382.652344" xlink:href="#DejaVuSans-77"/>
     <use x="1464.439453" xlink:href="#DejaVuSans-69"/>
     <use x="1492.222656" xlink:href="#DejaVuSans-74"/>
     <use x="1531.431641" xlink:href="#DejaVuSans-68"/>
     <use x="1594.810547" xlink:href="#DejaVuSans-20"/>
     <use x="1626.597656" xlink:href="#DejaVuSans-65"/>
     <use x="1688.121094" xlink:href="#DejaVuSans-76"/>
     <use x="1747.300781" xlink:href="#DejaVuSans-65"/>
     <use x="1808.824219" xlink:href="#DejaVuSans-6e"/>
     <use x="1872.203125" xlink:href="#DejaVuSans-20"/>
     <use x="1903.990234" xlink:href="#DejaVuSans-63"/>
     <use x="1958.970703" xlink:href="#DejaVuSans-79"/>
     <use x="2018.150391" xlink:href="#DejaVuSans-63"/>
     <use x="2073.130859" xlink:href="#DejaVuSans-6c"/>
     <use x="2100.914062" xlink:href="#DejaVuSans-65"/>
     <use x="2162.4375" xlink:href="#DejaVuSans-73"/>
    </g>
   </g>
   <g id="legend_1">
    <g id="patch_7">
     <path d="M 411.598688 75.986925 
L 545.744 75.986925 
Q 547.744 75.986925 547.744 73.986925 
L 547.744 60.3088 
Q 547.744 58.3088 545.744 58.3088 
L 411.598688 58.3088 
Q 409.598688 58.3088 409.598688 60.3088 
L 409.598688 73.986925 
Q 409.598688 75.986925 411.598688 75.986925 
z
" style="fill:#e5e5e5;opacity:0.8;stroke:#cccccc;stroke-linejoin:miter;stroke-width:0.5;"/>
    </g>
    <g id="line2d_37">
     <path d="M 413.598688 66.407238 
L 433.598688 66.407238 
" style="fill:none;stroke:#000000;stroke-dasharray:5.55,2.4;stroke-dashoffset:0;stroke-width:1.5;"/>
    </g>
    <g id="line2d_38"/>
    <g id="text_19">
     <!-- Expected proportion -->
     <defs>
      <path d="M 9.8125 72.90625 
L 55.90625 72.90625 
L 55.90625 64.59375 
L 19.671875 64.59375 
L 19.671875 43.015625 
L 54.390625 43.015625 
L 54.390625 34.71875 
L 19.671875 34.71875 
L 19.671875 8.296875 
L 56.78125 8.296875 
L 56.78125 0 
L 9.8125 0 
z
" id="DejaVuSans-45"/>
      <path d="M 54.890625 54.6875 
L 35.109375 28.078125 
L 55.90625 0 
L 45.3125 0 
L 29.390625 21.484375 
L 13.484375 0 
L 2.875 0 
L 24.125 28.609375 
L 4.6875 54.6875 
L 15.28125 54.6875 
L 29.78125 35.203125 
L 44.28125 54.6875 
z
" id="DejaVuSans-78"/>
      <path d="M 45.40625 46.390625 
L 45.40625 75.984375 
L 54.390625 75.984375 
L 54.390625 0 
L 45.40625 0 
L 45.40625 8.203125 
Q 42.578125 3.328125 38.25 0.953125 
Q 33.9375 -1.421875 27.875 -1.421875 
Q 17.96875 -1.421875 11.734375 6.484375 
Q 5.515625 14.40625 5.515625 27.296875 
Q 5.515625 40.1875 11.734375 48.09375 
Q 17.96875 56 27.875 56 
Q 33.9375 56 38.25 53.625 
Q 42.578125 51.265625 45.40625 46.390625 
z
M 14.796875 27.296875 
Q 14.796875 17.390625 18.875 11.75 
Q 22.953125 6.109375 30.078125 6.109375 
Q 37.203125 6.109375 41.296875 11.75 
Q 45.40625 17.390625 45.40625 27.296875 
Q 45.40625 37.203125 41.296875 42.84375 
Q 37.203125 48.484375 30.078125 48.484375 
Q 22.953125 48.484375 18.875 42.84375 
Q 14.796875 37.203125 14.796875 27.296875 
z
" id="DejaVuSans-64"/>
     </defs>
     <g transform="translate(441.598688 69.907238)scale(0.1 -0.1)">
      <use xlink:href="#DejaVuSans-45"/>
      <use x="63.183594" xlink:href="#DejaVuSans-78"/>
      <use x="122.363281" xlink:href="#DejaVuSans-70"/>
      <use x="185.839844" xlink:href="#DejaVuSans-65"/>
      <use x="247.363281" xlink:href="#DejaVuSans-63"/>
      <use x="302.34375" xlink:href="#DejaVuSans-74"/>
      <use x="341.552734" xlink:href="#DejaVuSans-65"/>
      <use x="403.076172" xlink:href="#DejaVuSans-64"/>
      <use x="466.552734" xlink:href="#DejaVuSans-20"/>
      <use x="498.339844" xlink:href="#DejaVuSans-70"/>
      <use x="561.816406" xlink:href="#DejaVuSans-72"/>
      <use x="602.898438" xlink:href="#DejaVuSans-6f"/>
      <use x="664.080078" xlink:href="#DejaVuSans-70"/>
      <use x="727.556641" xlink:href="#DejaVuSans-6f"/>
      <use x="788.738281" xlink:href="#DejaVuSans-72"/>
      <use x="829.851562" xlink:href="#DejaVuSans-74"/>
      <use x="869.060547" xlink:href="#DejaVuSans-69"/>
      <use x="896.84375" xlink:href="#DejaVuSans-6f"/>
      <use x="958.025391" xlink:href="#DejaVuSans-6e"/>
     </g>
    </g>
   </g>
  </g>
 </g>
 <defs>
  <clipPath id="pac91c1db59">
   <rect height="342.0648" width="475.974" x="76.77" y="53.3088"/>
  </clipPath>
 </defs>
</svg>
